
<svg xmlns="http://www.w3.org/2000/svg" xmlns:xlink="http://www.w3.org/1999/xlink" width="240" zoomAndPan="magnify" viewBox="0 0 567 850.499975" height="140" preserveAspectRatio="xMidYMid meet" version="1.0"><defs><g/><clipPath id="0ba242815f"><path d="M 522 393 L 566.832031 393 L 566.832031 456 L 522 456 Z M 522 393 " clip-rule="nonzero"/></clipPath></defs><g fill="#000000" fill-opacity="0.4"><g transform="translate(37.815, 458.34486)"><g><path d="M 39.015625 -63.65625 C 39.316406 -65.414062 40.007812 -66.6875 41.09375 -67.46875 C 42.1875 -68.257812 43.414062 -68.640625 44.78125 -68.609375 C 46.144531 -68.578125 47.445312 -68.210938 48.6875 -67.515625 C 49.9375 -66.816406 50.910156 -65.832031 51.609375 -64.5625 C 52.304688 -63.289062 52.472656 -61.773438 52.109375 -60.015625 C 48.835938 -43.347656 46.59375 -26.523438 45.375 -9.546875 C 45.257812 -7.785156 44.695312 -6.375 43.6875 -5.3125 C 42.6875 -4.257812 41.488281 -3.566406 40.09375 -3.234375 C 38.707031 -2.898438 37.363281 -2.898438 36.0625 -3.234375 C 34.757812 -3.566406 33.679688 -4.257812 32.828125 -5.3125 C 31.984375 -6.375 31.617188 -7.785156 31.734375 -9.546875 C 31.921875 -12.398438 32.148438 -15.234375 32.421875 -18.046875 C 32.691406 -20.867188 32.976562 -23.703125 33.28125 -26.546875 L 20.828125 -26.546875 C 20.398438 -22.972656 19.972656 -19.378906 19.546875 -15.765625 C 19.128906 -12.160156 18.707031 -8.539062 18.28125 -4.90625 C 18.039062 -3.207031 17.40625 -1.84375 16.375 -0.8125 C 15.34375 0.21875 14.128906 0.910156 12.734375 1.265625 C 11.335938 1.628906 9.972656 1.644531 8.640625 1.3125 C 7.304688 0.976562 6.242188 0.285156 5.453125 -0.765625 C 4.671875 -1.828125 4.398438 -3.207031 4.640625 -4.90625 C 5.179688 -9.9375 5.753906 -14.953125 6.359375 -19.953125 C 6.972656 -24.960938 7.550781 -29.953125 8.09375 -34.921875 C 8.394531 -37.347656 8.695312 -39.753906 9 -42.140625 C 9.300781 -44.535156 9.578125 -46.945312 9.828125 -49.375 C 10.066406 -51.5 10.257812 -53.742188 10.40625 -56.109375 C 10.5625 -58.472656 11.035156 -60.6875 11.828125 -62.75 C 12.429688 -64.382812 13.351562 -65.566406 14.59375 -66.296875 C 15.832031 -67.023438 17.164062 -67.375 18.59375 -67.34375 C 20.019531 -67.3125 21.335938 -66.945312 22.546875 -66.25 C 23.765625 -65.550781 24.628906 -64.59375 25.140625 -63.375 C 25.660156 -62.164062 25.585938 -60.742188 24.921875 -59.109375 C 24.191406 -57.109375 23.765625 -54.941406 23.640625 -52.609375 C 23.523438 -50.273438 23.34375 -48.078125 23.09375 -46.015625 C 22.976562 -45.046875 22.859375 -44.078125 22.734375 -43.109375 C 22.609375 -42.140625 22.488281 -41.164062 22.375 -40.1875 L 35.015625 -40.1875 C 35.554688 -44.132812 36.160156 -48.0625 36.828125 -51.96875 C 37.492188 -55.882812 38.222656 -59.78125 39.015625 -63.65625 Z M 39.015625 -63.65625 "/></g></g></g><g fill="#000000" fill-opacity="0.4"><g transform="translate(94.647772, 458.34486)"><g><path d="M 51.75 -8.640625 C 52.78125 -7.242188 53.203125 -5.878906 53.015625 -4.546875 C 52.835938 -3.210938 52.257812 -2.078125 51.28125 -1.140625 C 50.3125 -0.203125 49.144531 0.460938 47.78125 0.859375 C 46.414062 1.253906 45.019531 1.269531 43.59375 0.90625 C 42.175781 0.539062 40.953125 -0.335938 39.921875 -1.734375 C 37.191406 -5.484375 34.144531 -8.953125 30.78125 -12.140625 C 27.414062 -15.328125 23.796875 -18.191406 19.921875 -20.734375 C 19.609375 -17.097656 19.316406 -13.488281 19.046875 -9.90625 C 18.773438 -6.332031 18.488281 -2.726562 18.1875 0.90625 C 18.0625 2.664062 17.5 4.0625 16.5 5.09375 C 15.5 6.125 14.300781 6.820312 12.90625 7.1875 C 11.519531 7.550781 10.171875 7.550781 8.859375 7.1875 C 7.554688 6.820312 6.476562 6.125 5.625 5.09375 C 4.78125 4.0625 4.421875 2.664062 4.546875 0.90625 C 5.085938 -5.757812 5.507812 -12.515625 5.8125 -19.359375 C 6.125 -26.210938 6.945312 -32.914062 8.28125 -39.46875 C 8.945312 -42.800781 10.1875 -46.039062 12 -49.1875 C 13.820312 -52.34375 16.140625 -54.96875 18.953125 -57.0625 C 21.773438 -59.15625 25.066406 -60.257812 28.828125 -60.375 C 31.429688 -60.5 33.898438 -60.015625 36.234375 -58.921875 C 38.566406 -57.835938 40.550781 -56.335938 42.1875 -54.421875 C 43.832031 -52.515625 44.941406 -50.332031 45.515625 -47.875 C 46.085938 -45.425781 45.953125 -42.894531 45.109375 -40.28125 C 44.253906 -37.738281 42.875 -35.300781 40.96875 -32.96875 C 39.0625 -30.632812 36.863281 -28.617188 34.375 -26.921875 C 40.863281 -21.703125 46.65625 -15.609375 51.75 -8.640625 Z M 32.28125 -45.109375 C 32.039062 -46.316406 31.570312 -46.992188 30.875 -47.140625 C 30.175781 -47.296875 29.382812 -47.097656 28.5 -46.546875 C 27.625 -46.003906 26.757812 -45.3125 25.90625 -44.46875 C 25.0625 -43.625 24.335938 -42.789062 23.734375 -41.96875 C 23.128906 -41.144531 22.734375 -40.550781 22.546875 -40.1875 C 22.066406 -38.851562 21.644531 -37.335938 21.28125 -35.640625 C 22.488281 -35.828125 23.578125 -36.207031 24.546875 -36.78125 C 25.523438 -37.351562 26.46875 -38.066406 27.375 -38.921875 C 27.738281 -39.285156 28.34375 -39.859375 29.1875 -40.640625 C 30.039062 -41.429688 30.800781 -42.25 31.46875 -43.09375 C 32.132812 -43.945312 32.40625 -44.617188 32.28125 -45.109375 Z M 32.28125 -45.109375 "/></g></g></g><g fill="#000000" fill-opacity="0.4"><g transform="translate(152.208006, 458.34486)"><g/></g></g><g fill="#000000" fill-opacity="0.4"><g transform="translate(179.851474, 458.34486)"><g><path d="M 33.921875 -39.46875 C 37.316406 -37.164062 40 -34.148438 41.96875 -30.421875 C 43.9375 -26.691406 44.707031 -22.765625 44.28125 -18.640625 C 43.863281 -15.003906 42.625 -11.867188 40.5625 -9.234375 C 38.5 -6.597656 35.96875 -4.566406 32.96875 -3.140625 C 29.96875 -1.710938 26.785156 -0.921875 23.421875 -0.765625 C 20.054688 -0.617188 16.828125 -1.179688 13.734375 -2.453125 C 10.640625 -3.722656 8.03125 -5.753906 5.90625 -8.546875 C 4.820312 -10.003906 4.367188 -11.367188 4.546875 -12.640625 C 4.722656 -13.910156 5.28125 -15.03125 6.21875 -16 C 7.164062 -16.96875 8.335938 -17.648438 9.734375 -18.046875 C 11.128906 -18.441406 12.535156 -18.457031 13.953125 -18.09375 C 15.378906 -17.726562 16.609375 -16.847656 17.640625 -15.453125 C 18.128906 -14.785156 19.039062 -14.40625 20.375 -14.3125 C 21.707031 -14.226562 23.039062 -14.289062 24.375 -14.5 C 25.707031 -14.71875 26.644531 -14.945312 27.1875 -15.1875 C 28.457031 -15.789062 29.410156 -16.679688 30.046875 -17.859375 C 30.691406 -19.046875 30.921875 -20.335938 30.734375 -21.734375 C 30.554688 -23.429688 29.953125 -24.835938 28.921875 -25.953125 C 27.890625 -27.078125 26.660156 -28.035156 25.234375 -28.828125 C 23.804688 -29.617188 22.363281 -30.390625 20.90625 -31.140625 C 19.457031 -31.898438 18.1875 -32.734375 17.09375 -33.640625 C 14.0625 -36.304688 12.210938 -39.21875 11.546875 -42.375 C 10.878906 -45.53125 11.101562 -48.648438 12.21875 -51.734375 C 13.34375 -54.828125 15.085938 -57.644531 17.453125 -60.1875 C 19.816406 -62.738281 22.515625 -64.742188 25.546875 -66.203125 C 27.191406 -66.929688 28.707031 -67.128906 30.09375 -66.796875 C 31.488281 -66.460938 32.6875 -65.78125 33.6875 -64.75 C 34.6875 -63.71875 35.367188 -62.535156 35.734375 -61.203125 C 36.097656 -59.867188 36.035156 -58.59375 35.546875 -57.375 C 35.066406 -56.164062 34.039062 -55.164062 32.46875 -54.375 C 31.4375 -53.894531 30.238281 -53.226562 28.875 -52.375 C 27.507812 -51.53125 26.382812 -50.515625 25.5 -49.328125 C 24.625 -48.148438 24.460938 -46.832031 25.015625 -45.375 C 25.316406 -44.40625 26.023438 -43.570312 27.140625 -42.875 C 28.265625 -42.175781 29.460938 -41.550781 30.734375 -41 C 32.003906 -40.457031 33.066406 -39.945312 33.921875 -39.46875 Z M 33.921875 -39.46875 "/></g></g></g><g fill="#000000" fill-opacity="0.4"><g transform="translate(228.773127, 458.34486)"><g><path d="M 53.203125 -51.75 C 53.566406 -48.46875 53.59375 -44.898438 53.28125 -41.046875 C 52.976562 -37.203125 52.28125 -33.351562 51.1875 -29.5 C 50.101562 -25.65625 48.578125 -22.082031 46.609375 -18.78125 C 44.640625 -15.476562 42.210938 -12.6875 39.328125 -10.40625 C 36.453125 -8.132812 33.101562 -6.664062 29.28125 -6 C 25.28125 -5.332031 21.867188 -5.648438 19.046875 -6.953125 C 16.234375 -8.253906 13.898438 -10.222656 12.046875 -12.859375 C 10.203125 -15.503906 8.734375 -18.566406 7.640625 -22.046875 C 6.546875 -25.535156 5.769531 -29.144531 5.3125 -32.875 C 4.863281 -36.601562 4.625 -40.191406 4.59375 -43.640625 C 4.5625 -47.097656 4.632812 -50.101562 4.8125 -52.65625 C 4.9375 -54.414062 5.5 -55.804688 6.5 -56.828125 C 7.5 -57.859375 8.679688 -58.554688 10.046875 -58.921875 C 11.410156 -59.285156 12.757812 -59.285156 14.09375 -58.921875 C 15.425781 -58.554688 16.515625 -57.859375 17.359375 -56.828125 C 18.210938 -55.804688 18.578125 -54.414062 18.453125 -52.65625 C 18.398438 -51.738281 18.34375 -50.203125 18.28125 -48.046875 C 18.21875 -45.898438 18.242188 -43.429688 18.359375 -40.640625 C 18.484375 -37.859375 18.742188 -35.070312 19.140625 -32.28125 C 19.535156 -29.488281 20.109375 -27 20.859375 -24.8125 C 21.617188 -22.632812 22.632812 -21.078125 23.90625 -20.140625 C 25.1875 -19.203125 26.796875 -19.1875 28.734375 -20.09375 C 31.398438 -21.3125 33.519531 -23.175781 35.09375 -25.6875 C 36.675781 -28.207031 37.832031 -31.007812 38.5625 -34.09375 C 39.289062 -37.1875 39.710938 -40.28125 39.828125 -43.375 C 39.953125 -46.46875 39.863281 -49.257812 39.5625 -51.75 C 39.3125 -53.5 39.582031 -54.890625 40.375 -55.921875 C 41.164062 -56.953125 42.210938 -57.632812 43.515625 -57.96875 C 44.816406 -58.300781 46.164062 -58.300781 47.5625 -57.96875 C 48.957031 -57.632812 50.179688 -56.9375 51.234375 -55.875 C 52.296875 -54.820312 52.953125 -53.445312 53.203125 -51.75 Z M 53.203125 -51.75 "/></g></g></g><g fill="#000000" fill-opacity="0.4"><g transform="translate(286.78803, 458.34486)"><g><path d="M 36.734375 -62.203125 C 39.648438 -60.984375 42.300781 -59.421875 44.6875 -57.515625 C 47.082031 -55.609375 49.023438 -53.394531 50.515625 -50.875 C 52.003906 -48.363281 52.851562 -45.648438 53.0625 -42.734375 C 53.269531 -39.828125 52.648438 -36.796875 51.203125 -33.640625 C 49.316406 -29.828125 46.707031 -26.78125 43.375 -24.5 C 40.039062 -22.226562 36.359375 -20.773438 32.328125 -20.140625 C 28.296875 -19.503906 24.3125 -19.640625 20.375 -20.546875 C 20.007812 -17.097656 19.644531 -13.644531 19.28125 -10.1875 C 18.914062 -6.726562 18.550781 -3.269531 18.1875 0.1875 C 18.007812 1.882812 17.414062 3.257812 16.40625 4.3125 C 15.40625 5.375 14.207031 6.070312 12.8125 6.40625 C 11.425781 6.738281 10.066406 6.738281 8.734375 6.40625 C 7.398438 6.070312 6.335938 5.390625 5.546875 4.359375 C 4.753906 3.328125 4.421875 1.9375 4.546875 0.1875 C 5.390625 -8 6.207031 -16.171875 7 -24.328125 C 7.789062 -32.484375 8.640625 -40.625 9.546875 -48.75 C 9.972656 -51.957031 10.851562 -54.847656 12.1875 -57.421875 C 13.519531 -60.003906 15.789062 -61.898438 19 -63.109375 C 21.851562 -64.203125 24.835938 -64.597656 27.953125 -64.296875 C 31.078125 -63.992188 34.003906 -63.296875 36.734375 -62.203125 Z M 21.734375 -34.28125 C 23.242188 -33.851562 24.96875 -33.609375 26.90625 -33.546875 C 28.851562 -33.492188 30.765625 -33.707031 32.640625 -34.1875 C 34.523438 -34.675781 36.101562 -35.507812 37.375 -36.6875 C 38.644531 -37.875 39.375 -39.5 39.5625 -41.5625 C 39.675781 -42.894531 39.21875 -44.179688 38.1875 -45.421875 C 37.15625 -46.660156 35.820312 -47.734375 34.1875 -48.640625 C 32.550781 -49.554688 30.914062 -50.210938 29.28125 -50.609375 C 27.644531 -51.003906 26.25 -51.050781 25.09375 -50.75 C 24.425781 -50.5 24.015625 -50.34375 23.859375 -50.28125 C 23.710938 -50.226562 23.640625 -50.109375 23.640625 -49.921875 C 23.640625 -49.742188 23.488281 -49.351562 23.1875 -48.75 C 22.820312 -47.957031 22.640625 -46.894531 22.640625 -45.5625 C 22.640625 -44.226562 22.609375 -43.078125 22.546875 -42.109375 C 22.429688 -40.773438 22.296875 -39.46875 22.140625 -38.1875 C 21.992188 -36.914062 21.859375 -35.613281 21.734375 -34.28125 Z M 21.734375 -34.28125 "/></g></g></g><g fill="#000000" fill-opacity="0.4"><g transform="translate(344.43921, 458.34486)"><g><path d="M 36.734375 -62.203125 C 39.648438 -60.984375 42.300781 -59.421875 44.6875 -57.515625 C 47.082031 -55.609375 49.023438 -53.394531 50.515625 -50.875 C 52.003906 -48.363281 52.851562 -45.648438 53.0625 -42.734375 C 53.269531 -39.828125 52.648438 -36.796875 51.203125 -33.640625 C 49.316406 -29.828125 46.707031 -26.78125 43.375 -24.5 C 40.039062 -22.226562 36.359375 -20.773438 32.328125 -20.140625 C 28.296875 -19.503906 24.3125 -19.640625 20.375 -20.546875 C 20.007812 -17.097656 19.644531 -13.644531 19.28125 -10.1875 C 18.914062 -6.726562 18.550781 -3.269531 18.1875 0.1875 C 18.007812 1.882812 17.414062 3.257812 16.40625 4.3125 C 15.40625 5.375 14.207031 6.070312 12.8125 6.40625 C 11.425781 6.738281 10.066406 6.738281 8.734375 6.40625 C 7.398438 6.070312 6.335938 5.390625 5.546875 4.359375 C 4.753906 3.328125 4.421875 1.9375 4.546875 0.1875 C 5.390625 -8 6.207031 -16.171875 7 -24.328125 C 7.789062 -32.484375 8.640625 -40.625 9.546875 -48.75 C 9.972656 -51.957031 10.851562 -54.847656 12.1875 -57.421875 C 13.519531 -60.003906 15.789062 -61.898438 19 -63.109375 C 21.851562 -64.203125 24.835938 -64.597656 27.953125 -64.296875 C 31.078125 -63.992188 34.003906 -63.296875 36.734375 -62.203125 Z M 21.734375 -34.28125 C 23.242188 -33.851562 24.96875 -33.609375 26.90625 -33.546875 C 28.851562 -33.492188 30.765625 -33.707031 32.640625 -34.1875 C 34.523438 -34.675781 36.101562 -35.507812 37.375 -36.6875 C 38.644531 -37.875 39.375 -39.5 39.5625 -41.5625 C 39.675781 -42.894531 39.21875 -44.179688 38.1875 -45.421875 C 37.15625 -46.660156 35.820312 -47.734375 34.1875 -48.640625 C 32.550781 -49.554688 30.914062 -50.210938 29.28125 -50.609375 C 27.644531 -51.003906 26.25 -51.050781 25.09375 -50.75 C 24.425781 -50.5 24.015625 -50.34375 23.859375 -50.28125 C 23.710938 -50.226562 23.640625 -50.109375 23.640625 -49.921875 C 23.640625 -49.742188 23.488281 -49.351562 23.1875 -48.75 C 22.820312 -47.957031 22.640625 -46.894531 22.640625 -45.5625 C 22.640625 -44.226562 22.609375 -43.078125 22.546875 -42.109375 C 22.429688 -40.773438 22.296875 -39.46875 22.140625 -38.1875 C 21.992188 -36.914062 21.859375 -35.613281 21.734375 -34.28125 Z M 21.734375 -34.28125 "/></g></g></g><g fill="#000000" fill-opacity="0.4"><g transform="translate(402.09039, 458.34486)"><g><path d="M 50.5625 -57.921875 C 52.019531 -55.554688 53.019531 -52.90625 53.5625 -49.96875 C 54.101562 -47.03125 54.34375 -44.0625 54.28125 -41.0625 C 54.226562 -38.0625 53.988281 -35.253906 53.5625 -32.640625 C 52.957031 -28.640625 51.710938 -24.851562 49.828125 -21.28125 C 47.953125 -17.707031 45.4375 -14.613281 42.28125 -12 C 39.25 -9.519531 35.734375 -7.703125 31.734375 -6.546875 C 27.734375 -5.390625 23.820312 -5.421875 20 -6.640625 C 17.457031 -7.429688 15.242188 -8.734375 13.359375 -10.546875 C 11.484375 -12.367188 9.910156 -14.445312 8.640625 -16.78125 C 7.367188 -19.113281 6.425781 -21.492188 5.8125 -23.921875 C 5.09375 -26.585938 4.671875 -29.660156 4.546875 -33.140625 C 4.421875 -36.628906 4.660156 -40.191406 5.265625 -43.828125 C 5.878906 -47.460938 6.878906 -50.859375 8.265625 -54.015625 C 9.660156 -57.171875 11.539062 -59.78125 13.90625 -61.84375 C 16.332031 -64.320312 19.242188 -66.078125 22.640625 -67.109375 C 26.035156 -68.140625 29.519531 -68.488281 33.09375 -68.15625 C 36.675781 -67.820312 40.015625 -66.789062 43.109375 -65.0625 C 46.203125 -63.332031 48.6875 -60.953125 50.5625 -57.921875 Z M 34.015625 -22.546875 C 36.078125 -24.492188 37.609375 -26.753906 38.609375 -29.328125 C 39.609375 -31.898438 40.226562 -34.597656 40.46875 -37.421875 C 40.707031 -40.242188 40.644531 -42.988281 40.28125 -45.65625 C 39.914062 -48.320312 38.867188 -50.503906 37.140625 -52.203125 C 35.421875 -53.898438 33.132812 -54.71875 30.28125 -54.65625 C 28.707031 -54.65625 27.175781 -54.257812 25.6875 -53.46875 C 24.207031 -52.6875 22.976562 -51.65625 22 -50.375 C 20.914062 -48.863281 20.128906 -47.046875 19.640625 -44.921875 C 19.160156 -42.796875 18.796875 -40.828125 18.546875 -39.015625 C 18.003906 -34.953125 18.21875 -30.953125 19.1875 -27.015625 C 19.488281 -25.859375 19.894531 -24.703125 20.40625 -23.546875 C 20.925781 -22.398438 21.671875 -21.460938 22.640625 -20.734375 C 24.222656 -19.578125 26.023438 -19.164062 28.046875 -19.5 C 30.078125 -19.832031 31.851562 -20.640625 33.375 -21.921875 C 33.550781 -22.097656 33.765625 -22.304688 34.015625 -22.546875 Z M 34.015625 -22.546875 "/></g></g></g><g fill="#000000" fill-opacity="0.4"><g transform="translate(461.014613, 458.34486)"><g><path d="M 51.75 -8.640625 C 52.78125 -7.242188 53.203125 -5.878906 53.015625 -4.546875 C 52.835938 -3.210938 52.257812 -2.078125 51.28125 -1.140625 C 50.3125 -0.203125 49.144531 0.460938 47.78125 0.859375 C 46.414062 1.253906 45.019531 1.269531 43.59375 0.90625 C 42.175781 0.539062 40.953125 -0.335938 39.921875 -1.734375 C 37.191406 -5.484375 34.144531 -8.953125 30.78125 -12.140625 C 27.414062 -15.328125 23.796875 -18.191406 19.921875 -20.734375 C 19.609375 -17.097656 19.316406 -13.488281 19.046875 -9.90625 C 18.773438 -6.332031 18.488281 -2.726562 18.1875 0.90625 C 18.0625 2.664062 17.5 4.0625 16.5 5.09375 C 15.5 6.125 14.300781 6.820312 12.90625 7.1875 C 11.519531 7.550781 10.171875 7.550781 8.859375 7.1875 C 7.554688 6.820312 6.476562 6.125 5.625 5.09375 C 4.78125 4.0625 4.421875 2.664062 4.546875 0.90625 C 5.085938 -5.757812 5.507812 -12.515625 5.8125 -19.359375 C 6.125 -26.210938 6.945312 -32.914062 8.28125 -39.46875 C 8.945312 -42.800781 10.1875 -46.039062 12 -49.1875 C 13.820312 -52.34375 16.140625 -54.96875 18.953125 -57.0625 C 21.773438 -59.15625 25.066406 -60.257812 28.828125 -60.375 C 31.429688 -60.5 33.898438 -60.015625 36.234375 -58.921875 C 38.566406 -57.835938 40.550781 -56.335938 42.1875 -54.421875 C 43.832031 -52.515625 44.941406 -50.332031 45.515625 -47.875 C 46.085938 -45.425781 45.953125 -42.894531 45.109375 -40.28125 C 44.253906 -37.738281 42.875 -35.300781 40.96875 -32.96875 C 39.0625 -30.632812 36.863281 -28.617188 34.375 -26.921875 C 40.863281 -21.703125 46.65625 -15.609375 51.75 -8.640625 Z M 32.28125 -45.109375 C 32.039062 -46.316406 31.570312 -46.992188 30.875 -47.140625 C 30.175781 -47.296875 29.382812 -47.097656 28.5 -46.546875 C 27.625 -46.003906 26.757812 -45.3125 25.90625 -44.46875 C 25.0625 -43.625 24.335938 -42.789062 23.734375 -41.96875 C 23.128906 -41.144531 22.734375 -40.550781 22.546875 -40.1875 C 22.066406 -38.851562 21.644531 -37.335938 21.28125 -35.640625 C 22.488281 -35.828125 23.578125 -36.207031 24.546875 -36.78125 C 25.523438 -37.351562 26.46875 -38.066406 27.375 -38.921875 C 27.738281 -39.285156 28.34375 -39.859375 29.1875 -40.640625 C 30.039062 -41.429688 30.800781 -42.25 31.46875 -43.09375 C 32.132812 -43.945312 32.40625 -44.617188 32.28125 -45.109375 Z M 32.28125 -45.109375 "/></g></g></g><g clip-path="url(#0ba242815f)"><g fill="#000000" fill-opacity="0.4"><g transform="translate(518.574855, 458.34486)"><g><path d="M 41.46875 -62.5625 C 43.164062 -62.382812 44.53125 -61.765625 45.5625 -60.703125 C 46.59375 -59.640625 47.289062 -58.410156 47.65625 -57.015625 C 48.019531 -55.617188 48.019531 -54.269531 47.65625 -52.96875 C 47.289062 -51.664062 46.59375 -50.617188 45.5625 -49.828125 C 44.53125 -49.046875 43.164062 -48.773438 41.46875 -49.015625 C 38.613281 -49.378906 35.703125 -49.648438 32.734375 -49.828125 C 32.304688 -43.160156 31.894531 -36.519531 31.5 -29.90625 C 31.113281 -23.300781 30.707031 -16.695312 30.28125 -10.09375 C 30.21875 -8.332031 29.6875 -6.921875 28.6875 -5.859375 C 27.6875 -4.804688 26.503906 -4.113281 25.140625 -3.78125 C 23.773438 -3.445312 22.425781 -3.445312 21.09375 -3.78125 C 19.757812 -4.113281 18.664062 -4.804688 17.8125 -5.859375 C 16.96875 -6.921875 16.578125 -8.332031 16.640625 -10.09375 C 17.066406 -16.695312 17.472656 -23.332031 17.859375 -30 C 18.253906 -36.675781 18.664062 -43.316406 19.09375 -49.921875 C 16.363281 -49.859375 13.695312 -49.675781 11.09375 -49.375 C 9.332031 -49.257812 7.921875 -49.59375 6.859375 -50.375 C 5.804688 -51.164062 5.113281 -52.226562 4.78125 -53.5625 C 4.445312 -54.894531 4.457031 -56.257812 4.8125 -57.65625 C 5.175781 -59.050781 5.875 -60.25 6.90625 -61.25 C 7.9375 -62.25 9.332031 -62.835938 11.09375 -63.015625 C 21.21875 -64.046875 31.34375 -63.894531 41.46875 -62.5625 Z M 41.46875 -62.5625 "/></g></g></g></g><g fill="#59b379" fill-opacity="1"><g transform="translate(33.796203, 454.326052)"><g><path d="M 39.015625 -63.65625 C 39.316406 -65.414062 40.007812 -66.6875 41.09375 -67.46875 C 42.1875 -68.257812 43.414062 -68.640625 44.78125 -68.609375 C 46.144531 -68.578125 47.445312 -68.210938 48.6875 -67.515625 C 49.9375 -66.816406 50.910156 -65.832031 51.609375 -64.5625 C 52.304688 -63.289062 52.472656 -61.773438 52.109375 -60.015625 C 48.835938 -43.347656 46.59375 -26.523438 45.375 -9.546875 C 45.257812 -7.785156 44.695312 -6.375 43.6875 -5.3125 C 42.6875 -4.257812 41.488281 -3.566406 40.09375 -3.234375 C 38.707031 -2.898438 37.363281 -2.898438 36.0625 -3.234375 C 34.757812 -3.566406 33.679688 -4.257812 32.828125 -5.3125 C 31.984375 -6.375 31.617188 -7.785156 31.734375 -9.546875 C 31.921875 -12.398438 32.148438 -15.234375 32.421875 -18.046875 C 32.691406 -20.867188 32.976562 -23.703125 33.28125 -26.546875 L 20.828125 -26.546875 C 20.398438 -22.972656 19.972656 -19.378906 19.546875 -15.765625 C 19.128906 -12.160156 18.707031 -8.539062 18.28125 -4.90625 C 18.039062 -3.207031 17.40625 -1.84375 16.375 -0.8125 C 15.34375 0.21875 14.128906 0.910156 12.734375 1.265625 C 11.335938 1.628906 9.972656 1.644531 8.640625 1.3125 C 7.304688 0.976562 6.242188 0.285156 5.453125 -0.765625 C 4.671875 -1.828125 4.398438 -3.207031 4.640625 -4.90625 C 5.179688 -9.9375 5.753906 -14.953125 6.359375 -19.953125 C 6.972656 -24.960938 7.550781 -29.953125 8.09375 -34.921875 C 8.394531 -37.347656 8.695312 -39.753906 9 -42.140625 C 9.300781 -44.535156 9.578125 -46.945312 9.828125 -49.375 C 10.066406 -51.5 10.257812 -53.742188 10.40625 -56.109375 C 10.5625 -58.472656 11.035156 -60.6875 11.828125 -62.75 C 12.429688 -64.382812 13.351562 -65.566406 14.59375 -66.296875 C 15.832031 -67.023438 17.164062 -67.375 18.59375 -67.34375 C 20.019531 -67.3125 21.335938 -66.945312 22.546875 -66.25 C 23.765625 -65.550781 24.628906 -64.59375 25.140625 -63.375 C 25.660156 -62.164062 25.585938 -60.742188 24.921875 -59.109375 C 24.191406 -57.109375 23.765625 -54.941406 23.640625 -52.609375 C 23.523438 -50.273438 23.34375 -48.078125 23.09375 -46.015625 C 22.976562 -45.046875 22.859375 -44.078125 22.734375 -43.109375 C 22.609375 -42.140625 22.488281 -41.164062 22.375 -40.1875 L 35.015625 -40.1875 C 35.554688 -44.132812 36.160156 -48.0625 36.828125 -51.96875 C 37.492188 -55.882812 38.222656 -59.78125 39.015625 -63.65625 Z M 39.015625 -63.65625 "/></g></g></g><g fill="#59b379" fill-opacity="1"><g transform="translate(90.628976, 454.326052)"><g><path d="M 51.75 -8.640625 C 52.78125 -7.242188 53.203125 -5.878906 53.015625 -4.546875 C 52.835938 -3.210938 52.257812 -2.078125 51.28125 -1.140625 C 50.3125 -0.203125 49.144531 0.460938 47.78125 0.859375 C 46.414062 1.253906 45.019531 1.269531 43.59375 0.90625 C 42.175781 0.539062 40.953125 -0.335938 39.921875 -1.734375 C 37.191406 -5.484375 34.144531 -8.953125 30.78125 -12.140625 C 27.414062 -15.328125 23.796875 -18.191406 19.921875 -20.734375 C 19.609375 -17.097656 19.316406 -13.488281 19.046875 -9.90625 C 18.773438 -6.332031 18.488281 -2.726562 18.1875 0.90625 C 18.0625 2.664062 17.5 4.0625 16.5 5.09375 C 15.5 6.125 14.300781 6.820312 12.90625 7.1875 C 11.519531 7.550781 10.171875 7.550781 8.859375 7.1875 C 7.554688 6.820312 6.476562 6.125 5.625 5.09375 C 4.78125 4.0625 4.421875 2.664062 4.546875 0.90625 C 5.085938 -5.757812 5.507812 -12.515625 5.8125 -19.359375 C 6.125 -26.210938 6.945312 -32.914062 8.28125 -39.46875 C 8.945312 -42.800781 10.1875 -46.039062 12 -49.1875 C 13.820312 -52.34375 16.140625 -54.96875 18.953125 -57.0625 C 21.773438 -59.15625 25.066406 -60.257812 28.828125 -60.375 C 31.429688 -60.5 33.898438 -60.015625 36.234375 -58.921875 C 38.566406 -57.835938 40.550781 -56.335938 42.1875 -54.421875 C 43.832031 -52.515625 44.941406 -50.332031 45.515625 -47.875 C 46.085938 -45.425781 45.953125 -42.894531 45.109375 -40.28125 C 44.253906 -37.738281 42.875 -35.300781 40.96875 -32.96875 C 39.0625 -30.632812 36.863281 -28.617188 34.375 -26.921875 C 40.863281 -21.703125 46.65625 -15.609375 51.75 -8.640625 Z M 32.28125 -45.109375 C 32.039062 -46.316406 31.570312 -46.992188 30.875 -47.140625 C 30.175781 -47.296875 29.382812 -47.097656 28.5 -46.546875 C 27.625 -46.003906 26.757812 -45.3125 25.90625 -44.46875 C 25.0625 -43.625 24.335938 -42.789062 23.734375 -41.96875 C 23.128906 -41.144531 22.734375 -40.550781 22.546875 -40.1875 C 22.066406 -38.851562 21.644531 -37.335938 21.28125 -35.640625 C 22.488281 -35.828125 23.578125 -36.207031 24.546875 -36.78125 C 25.523438 -37.351562 26.46875 -38.066406 27.375 -38.921875 C 27.738281 -39.285156 28.34375 -39.859375 29.1875 -40.640625 C 30.039062 -41.429688 30.800781 -42.25 31.46875 -43.09375 C 32.132812 -43.945312 32.40625 -44.617188 32.28125 -45.109375 Z M 32.28125 -45.109375 "/></g></g></g><g fill="#59b379" fill-opacity="1"><g transform="translate(148.18921, 454.326052)"><g/></g></g><g fill="#59b379" fill-opacity="1"><g transform="translate(175.832678, 454.326052)"><g><path d="M 33.921875 -39.46875 C 37.316406 -37.164062 40 -34.148438 41.96875 -30.421875 C 43.9375 -26.691406 44.707031 -22.765625 44.28125 -18.640625 C 43.863281 -15.003906 42.625 -11.867188 40.5625 -9.234375 C 38.5 -6.597656 35.96875 -4.566406 32.96875 -3.140625 C 29.96875 -1.710938 26.785156 -0.921875 23.421875 -0.765625 C 20.054688 -0.617188 16.828125 -1.179688 13.734375 -2.453125 C 10.640625 -3.722656 8.03125 -5.753906 5.90625 -8.546875 C 4.820312 -10.003906 4.367188 -11.367188 4.546875 -12.640625 C 4.722656 -13.910156 5.28125 -15.03125 6.21875 -16 C 7.164062 -16.96875 8.335938 -17.648438 9.734375 -18.046875 C 11.128906 -18.441406 12.535156 -18.457031 13.953125 -18.09375 C 15.378906 -17.726562 16.609375 -16.847656 17.640625 -15.453125 C 18.128906 -14.785156 19.039062 -14.40625 20.375 -14.3125 C 21.707031 -14.226562 23.039062 -14.289062 24.375 -14.5 C 25.707031 -14.71875 26.644531 -14.945312 27.1875 -15.1875 C 28.457031 -15.789062 29.410156 -16.679688 30.046875 -17.859375 C 30.691406 -19.046875 30.921875 -20.335938 30.734375 -21.734375 C 30.554688 -23.429688 29.953125 -24.835938 28.921875 -25.953125 C 27.890625 -27.078125 26.660156 -28.035156 25.234375 -28.828125 C 23.804688 -29.617188 22.363281 -30.390625 20.90625 -31.140625 C 19.457031 -31.898438 18.1875 -32.734375 17.09375 -33.640625 C 14.0625 -36.304688 12.210938 -39.21875 11.546875 -42.375 C 10.878906 -45.53125 11.101562 -48.648438 12.21875 -51.734375 C 13.34375 -54.828125 15.085938 -57.644531 17.453125 -60.1875 C 19.816406 -62.738281 22.515625 -64.742188 25.546875 -66.203125 C 27.191406 -66.929688 28.707031 -67.128906 30.09375 -66.796875 C 31.488281 -66.460938 32.6875 -65.78125 33.6875 -64.75 C 34.6875 -63.71875 35.367188 -62.535156 35.734375 -61.203125 C 36.097656 -59.867188 36.035156 -58.59375 35.546875 -57.375 C 35.066406 -56.164062 34.039062 -55.164062 32.46875 -54.375 C 31.4375 -53.894531 30.238281 -53.226562 28.875 -52.375 C 27.507812 -51.53125 26.382812 -50.515625 25.5 -49.328125 C 24.625 -48.148438 24.460938 -46.832031 25.015625 -45.375 C 25.316406 -44.40625 26.023438 -43.570312 27.140625 -42.875 C 28.265625 -42.175781 29.460938 -41.550781 30.734375 -41 C 32.003906 -40.457031 33.066406 -39.945312 33.921875 -39.46875 Z M 33.921875 -39.46875 "/></g></g></g><g fill="#59b379" fill-opacity="1"><g transform="translate(224.754331, 454.326052)"><g><path d="M 53.203125 -51.75 C 53.566406 -48.46875 53.59375 -44.898438 53.28125 -41.046875 C 52.976562 -37.203125 52.28125 -33.351562 51.1875 -29.5 C 50.101562 -25.65625 48.578125 -22.082031 46.609375 -18.78125 C 44.640625 -15.476562 42.210938 -12.6875 39.328125 -10.40625 C 36.453125 -8.132812 33.101562 -6.664062 29.28125 -6 C 25.28125 -5.332031 21.867188 -5.648438 19.046875 -6.953125 C 16.234375 -8.253906 13.898438 -10.222656 12.046875 -12.859375 C 10.203125 -15.503906 8.734375 -18.566406 7.640625 -22.046875 C 6.546875 -25.535156 5.769531 -29.144531 5.3125 -32.875 C 4.863281 -36.601562 4.625 -40.191406 4.59375 -43.640625 C 4.5625 -47.097656 4.632812 -50.101562 4.8125 -52.65625 C 4.9375 -54.414062 5.5 -55.804688 6.5 -56.828125 C 7.5 -57.859375 8.679688 -58.554688 10.046875 -58.921875 C 11.410156 -59.285156 12.757812 -59.285156 14.09375 -58.921875 C 15.425781 -58.554688 16.515625 -57.859375 17.359375 -56.828125 C 18.210938 -55.804688 18.578125 -54.414062 18.453125 -52.65625 C 18.398438 -51.738281 18.34375 -50.203125 18.28125 -48.046875 C 18.21875 -45.898438 18.242188 -43.429688 18.359375 -40.640625 C 18.484375 -37.859375 18.742188 -35.070312 19.140625 -32.28125 C 19.535156 -29.488281 20.109375 -27 20.859375 -24.8125 C 21.617188 -22.632812 22.632812 -21.078125 23.90625 -20.140625 C 25.1875 -19.203125 26.796875 -19.1875 28.734375 -20.09375 C 31.398438 -21.3125 33.519531 -23.175781 35.09375 -25.6875 C 36.675781 -28.207031 37.832031 -31.007812 38.5625 -34.09375 C 39.289062 -37.1875 39.710938 -40.28125 39.828125 -43.375 C 39.953125 -46.46875 39.863281 -49.257812 39.5625 -51.75 C 39.3125 -53.5 39.582031 -54.890625 40.375 -55.921875 C 41.164062 -56.953125 42.210938 -57.632812 43.515625 -57.96875 C 44.816406 -58.300781 46.164062 -58.300781 47.5625 -57.96875 C 48.957031 -57.632812 50.179688 -56.9375 51.234375 -55.875 C 52.296875 -54.820312 52.953125 -53.445312 53.203125 -51.75 Z M 53.203125 -51.75 "/></g></g></g><g fill="#59b379" fill-opacity="1"><g transform="translate(282.769233, 454.326052)"><g><path d="M 36.734375 -62.203125 C 39.648438 -60.984375 42.300781 -59.421875 44.6875 -57.515625 C 47.082031 -55.609375 49.023438 -53.394531 50.515625 -50.875 C 52.003906 -48.363281 52.851562 -45.648438 53.0625 -42.734375 C 53.269531 -39.828125 52.648438 -36.796875 51.203125 -33.640625 C 49.316406 -29.828125 46.707031 -26.78125 43.375 -24.5 C 40.039062 -22.226562 36.359375 -20.773438 32.328125 -20.140625 C 28.296875 -19.503906 24.3125 -19.640625 20.375 -20.546875 C 20.007812 -17.097656 19.644531 -13.644531 19.28125 -10.1875 C 18.914062 -6.726562 18.550781 -3.269531 18.1875 0.1875 C 18.007812 1.882812 17.414062 3.257812 16.40625 4.3125 C 15.40625 5.375 14.207031 6.070312 12.8125 6.40625 C 11.425781 6.738281 10.066406 6.738281 8.734375 6.40625 C 7.398438 6.070312 6.335938 5.390625 5.546875 4.359375 C 4.753906 3.328125 4.421875 1.9375 4.546875 0.1875 C 5.390625 -8 6.207031 -16.171875 7 -24.328125 C 7.789062 -32.484375 8.640625 -40.625 9.546875 -48.75 C 9.972656 -51.957031 10.851562 -54.847656 12.1875 -57.421875 C 13.519531 -60.003906 15.789062 -61.898438 19 -63.109375 C 21.851562 -64.203125 24.835938 -64.597656 27.953125 -64.296875 C 31.078125 -63.992188 34.003906 -63.296875 36.734375 -62.203125 Z M 21.734375 -34.28125 C 23.242188 -33.851562 24.96875 -33.609375 26.90625 -33.546875 C 28.851562 -33.492188 30.765625 -33.707031 32.640625 -34.1875 C 34.523438 -34.675781 36.101562 -35.507812 37.375 -36.6875 C 38.644531 -37.875 39.375 -39.5 39.5625 -41.5625 C 39.675781 -42.894531 39.21875 -44.179688 38.1875 -45.421875 C 37.15625 -46.660156 35.820312 -47.734375 34.1875 -48.640625 C 32.550781 -49.554688 30.914062 -50.210938 29.28125 -50.609375 C 27.644531 -51.003906 26.25 -51.050781 25.09375 -50.75 C 24.425781 -50.5 24.015625 -50.34375 23.859375 -50.28125 C 23.710938 -50.226562 23.640625 -50.109375 23.640625 -49.921875 C 23.640625 -49.742188 23.488281 -49.351562 23.1875 -48.75 C 22.820312 -47.957031 22.640625 -46.894531 22.640625 -45.5625 C 22.640625 -44.226562 22.609375 -43.078125 22.546875 -42.109375 C 22.429688 -40.773438 22.296875 -39.46875 22.140625 -38.1875 C 21.992188 -36.914062 21.859375 -35.613281 21.734375 -34.28125 Z M 21.734375 -34.28125 "/></g></g></g><g fill="#59b379" fill-opacity="1"><g transform="translate(340.420413, 454.326052)"><g><path d="M 36.734375 -62.203125 C 39.648438 -60.984375 42.300781 -59.421875 44.6875 -57.515625 C 47.082031 -55.609375 49.023438 -53.394531 50.515625 -50.875 C 52.003906 -48.363281 52.851562 -45.648438 53.0625 -42.734375 C 53.269531 -39.828125 52.648438 -36.796875 51.203125 -33.640625 C 49.316406 -29.828125 46.707031 -26.78125 43.375 -24.5 C 40.039062 -22.226562 36.359375 -20.773438 32.328125 -20.140625 C 28.296875 -19.503906 24.3125 -19.640625 20.375 -20.546875 C 20.007812 -17.097656 19.644531 -13.644531 19.28125 -10.1875 C 18.914062 -6.726562 18.550781 -3.269531 18.1875 0.1875 C 18.007812 1.882812 17.414062 3.257812 16.40625 4.3125 C 15.40625 5.375 14.207031 6.070312 12.8125 6.40625 C 11.425781 6.738281 10.066406 6.738281 8.734375 6.40625 C 7.398438 6.070312 6.335938 5.390625 5.546875 4.359375 C 4.753906 3.328125 4.421875 1.9375 4.546875 0.1875 C 5.390625 -8 6.207031 -16.171875 7 -24.328125 C 7.789062 -32.484375 8.640625 -40.625 9.546875 -48.75 C 9.972656 -51.957031 10.851562 -54.847656 12.1875 -57.421875 C 13.519531 -60.003906 15.789062 -61.898438 19 -63.109375 C 21.851562 -64.203125 24.835938 -64.597656 27.953125 -64.296875 C 31.078125 -63.992188 34.003906 -63.296875 36.734375 -62.203125 Z M 21.734375 -34.28125 C 23.242188 -33.851562 24.96875 -33.609375 26.90625 -33.546875 C 28.851562 -33.492188 30.765625 -33.707031 32.640625 -34.1875 C 34.523438 -34.675781 36.101562 -35.507812 37.375 -36.6875 C 38.644531 -37.875 39.375 -39.5 39.5625 -41.5625 C 39.675781 -42.894531 39.21875 -44.179688 38.1875 -45.421875 C 37.15625 -46.660156 35.820312 -47.734375 34.1875 -48.640625 C 32.550781 -49.554688 30.914062 -50.210938 29.28125 -50.609375 C 27.644531 -51.003906 26.25 -51.050781 25.09375 -50.75 C 24.425781 -50.5 24.015625 -50.34375 23.859375 -50.28125 C 23.710938 -50.226562 23.640625 -50.109375 23.640625 -49.921875 C 23.640625 -49.742188 23.488281 -49.351562 23.1875 -48.75 C 22.820312 -47.957031 22.640625 -46.894531 22.640625 -45.5625 C 22.640625 -44.226562 22.609375 -43.078125 22.546875 -42.109375 C 22.429688 -40.773438 22.296875 -39.46875 22.140625 -38.1875 C 21.992188 -36.914062 21.859375 -35.613281 21.734375 -34.28125 Z M 21.734375 -34.28125 "/></g></g></g><g fill="#59b379" fill-opacity="1"><g transform="translate(398.071593, 454.326052)"><g><path d="M 50.5625 -57.921875 C 52.019531 -55.554688 53.019531 -52.90625 53.5625 -49.96875 C 54.101562 -47.03125 54.34375 -44.0625 54.28125 -41.0625 C 54.226562 -38.0625 53.988281 -35.253906 53.5625 -32.640625 C 52.957031 -28.640625 51.710938 -24.851562 49.828125 -21.28125 C 47.953125 -17.707031 45.4375 -14.613281 42.28125 -12 C 39.25 -9.519531 35.734375 -7.703125 31.734375 -6.546875 C 27.734375 -5.390625 23.820312 -5.421875 20 -6.640625 C 17.457031 -7.429688 15.242188 -8.734375 13.359375 -10.546875 C 11.484375 -12.367188 9.910156 -14.445312 8.640625 -16.78125 C 7.367188 -19.113281 6.425781 -21.492188 5.8125 -23.921875 C 5.09375 -26.585938 4.671875 -29.660156 4.546875 -33.140625 C 4.421875 -36.628906 4.660156 -40.191406 5.265625 -43.828125 C 5.878906 -47.460938 6.878906 -50.859375 8.265625 -54.015625 C 9.660156 -57.171875 11.539062 -59.78125 13.90625 -61.84375 C 16.332031 -64.320312 19.242188 -66.078125 22.640625 -67.109375 C 26.035156 -68.140625 29.519531 -68.488281 33.09375 -68.15625 C 36.675781 -67.820312 40.015625 -66.789062 43.109375 -65.0625 C 46.203125 -63.332031 48.6875 -60.953125 50.5625 -57.921875 Z M 34.015625 -22.546875 C 36.078125 -24.492188 37.609375 -26.753906 38.609375 -29.328125 C 39.609375 -31.898438 40.226562 -34.597656 40.46875 -37.421875 C 40.707031 -40.242188 40.644531 -42.988281 40.28125 -45.65625 C 39.914062 -48.320312 38.867188 -50.503906 37.140625 -52.203125 C 35.421875 -53.898438 33.132812 -54.71875 30.28125 -54.65625 C 28.707031 -54.65625 27.175781 -54.257812 25.6875 -53.46875 C 24.207031 -52.6875 22.976562 -51.65625 22 -50.375 C 20.914062 -48.863281 20.128906 -47.046875 19.640625 -44.921875 C 19.160156 -42.796875 18.796875 -40.828125 18.546875 -39.015625 C 18.003906 -34.953125 18.21875 -30.953125 19.1875 -27.015625 C 19.488281 -25.859375 19.894531 -24.703125 20.40625 -23.546875 C 20.925781 -22.398438 21.671875 -21.460938 22.640625 -20.734375 C 24.222656 -19.578125 26.023438 -19.164062 28.046875 -19.5 C 30.078125 -19.832031 31.851562 -20.640625 33.375 -21.921875 C 33.550781 -22.097656 33.765625 -22.304688 34.015625 -22.546875 Z M 34.015625 -22.546875 "/></g></g></g><g fill="#59b379" fill-opacity="1"><g transform="translate(456.995817, 454.326052)"><g><path d="M 51.75 -8.640625 C 52.78125 -7.242188 53.203125 -5.878906 53.015625 -4.546875 C 52.835938 -3.210938 52.257812 -2.078125 51.28125 -1.140625 C 50.3125 -0.203125 49.144531 0.460938 47.78125 0.859375 C 46.414062 1.253906 45.019531 1.269531 43.59375 0.90625 C 42.175781 0.539062 40.953125 -0.335938 39.921875 -1.734375 C 37.191406 -5.484375 34.144531 -8.953125 30.78125 -12.140625 C 27.414062 -15.328125 23.796875 -18.191406 19.921875 -20.734375 C 19.609375 -17.097656 19.316406 -13.488281 19.046875 -9.90625 C 18.773438 -6.332031 18.488281 -2.726562 18.1875 0.90625 C 18.0625 2.664062 17.5 4.0625 16.5 5.09375 C 15.5 6.125 14.300781 6.820312 12.90625 7.1875 C 11.519531 7.550781 10.171875 7.550781 8.859375 7.1875 C 7.554688 6.820312 6.476562 6.125 5.625 5.09375 C 4.78125 4.0625 4.421875 2.664062 4.546875 0.90625 C 5.085938 -5.757812 5.507812 -12.515625 5.8125 -19.359375 C 6.125 -26.210938 6.945312 -32.914062 8.28125 -39.46875 C 8.945312 -42.800781 10.1875 -46.039062 12 -49.1875 C 13.820312 -52.34375 16.140625 -54.96875 18.953125 -57.0625 C 21.773438 -59.15625 25.066406 -60.257812 28.828125 -60.375 C 31.429688 -60.5 33.898438 -60.015625 36.234375 -58.921875 C 38.566406 -57.835938 40.550781 -56.335938 42.1875 -54.421875 C 43.832031 -52.515625 44.941406 -50.332031 45.515625 -47.875 C 46.085938 -45.425781 45.953125 -42.894531 45.109375 -40.28125 C 44.253906 -37.738281 42.875 -35.300781 40.96875 -32.96875 C 39.0625 -30.632812 36.863281 -28.617188 34.375 -26.921875 C 40.863281 -21.703125 46.65625 -15.609375 51.75 -8.640625 Z M 32.28125 -45.109375 C 32.039062 -46.316406 31.570312 -46.992188 30.875 -47.140625 C 30.175781 -47.296875 29.382812 -47.097656 28.5 -46.546875 C 27.625 -46.003906 26.757812 -45.3125 25.90625 -44.46875 C 25.0625 -43.625 24.335938 -42.789062 23.734375 -41.96875 C 23.128906 -41.144531 22.734375 -40.550781 22.546875 -40.1875 C 22.066406 -38.851562 21.644531 -37.335938 21.28125 -35.640625 C 22.488281 -35.828125 23.578125 -36.207031 24.546875 -36.78125 C 25.523438 -37.351562 26.46875 -38.066406 27.375 -38.921875 C 27.738281 -39.285156 28.34375 -39.859375 29.1875 -40.640625 C 30.039062 -41.429688 30.800781 -42.25 31.46875 -43.09375 C 32.132812 -43.945312 32.40625 -44.617188 32.28125 -45.109375 Z M 32.28125 -45.109375 "/></g></g></g><g fill="#59b379" fill-opacity="1"><g transform="translate(514.556059, 454.326052)"><g><path d="M 41.46875 -62.5625 C 43.164062 -62.382812 44.53125 -61.765625 45.5625 -60.703125 C 46.59375 -59.640625 47.289062 -58.410156 47.65625 -57.015625 C 48.019531 -55.617188 48.019531 -54.269531 47.65625 -52.96875 C 47.289062 -51.664062 46.59375 -50.617188 45.5625 -49.828125 C 44.53125 -49.046875 43.164062 -48.773438 41.46875 -49.015625 C 38.613281 -49.378906 35.703125 -49.648438 32.734375 -49.828125 C 32.304688 -43.160156 31.894531 -36.519531 31.5 -29.90625 C 31.113281 -23.300781 30.707031 -16.695312 30.28125 -10.09375 C 30.21875 -8.332031 29.6875 -6.921875 28.6875 -5.859375 C 27.6875 -4.804688 26.503906 -4.113281 25.140625 -3.78125 C 23.773438 -3.445312 22.425781 -3.445312 21.09375 -3.78125 C 19.757812 -4.113281 18.664062 -4.804688 17.8125 -5.859375 C 16.96875 -6.921875 16.578125 -8.332031 16.640625 -10.09375 C 17.066406 -16.695312 17.472656 -23.332031 17.859375 -30 C 18.253906 -36.675781 18.664062 -43.316406 19.09375 -49.921875 C 16.363281 -49.859375 13.695312 -49.675781 11.09375 -49.375 C 9.332031 -49.257812 7.921875 -49.59375 6.859375 -50.375 C 5.804688 -51.164062 5.113281 -52.226562 4.78125 -53.5625 C 4.445312 -54.894531 4.457031 -56.257812 4.8125 -57.65625 C 5.175781 -59.050781 5.875 -60.25 6.90625 -61.25 C 7.9375 -62.25 9.332031 -62.835938 11.09375 -63.015625 C 21.21875 -64.046875 31.34375 -63.894531 41.46875 -62.5625 Z M 41.46875 -62.5625 "/></g></g></g></svg>