<svg xmlns="http://www.w3.org/2000/svg" width="240" zoomAndPan="magnify"
     viewBox="0 70 375 240" height="100" preserveAspectRatio="xMidYMid meet" version="1.0">
    <defs>
        <g/>
    </defs>
    <g fill="#000000" fill-opacity="0.4">
        <g transform="translate(23.989924, 201.924866)">
            <g>
                <path d="M 29.546875 -35.8125 C 29.585938 -33.519531 29.609375 -31.03125 29.609375 -28.34375 C 29.609375 -25.65625 29.445312 -22.96875 29.125 -20.28125 C 28.8125 -17.59375 28.210938 -15.054688 27.328125 -12.671875 C 26.441406 -10.285156 25.15625 -8.226562 23.46875 -6.5 C 21.75 -4.738281 19.882812 -3.625 17.875 -3.15625 C 15.863281 -2.695312 13.882812 -2.785156 11.9375 -3.421875 C 10 -4.066406 8.265625 -5.160156 6.734375 -6.703125 C 5.210938 -8.253906 4.070312 -10.15625 3.3125 -12.40625 C 2.90625 -13.5625 2.875 -14.582031 3.21875 -15.46875 C 3.5625 -16.351562 4.125 -17.035156 4.90625 -17.515625 C 5.6875 -17.992188 6.554688 -18.242188 7.515625 -18.265625 C 8.484375 -18.285156 9.378906 -18.035156 10.203125 -17.515625 C 11.023438 -16.992188 11.617188 -16.148438 11.984375 -14.984375 C 12.335938 -13.941406 12.984375 -13.207031 13.921875 -12.78125 C 14.867188 -12.363281 15.804688 -12.457031 16.734375 -13.0625 C 17.492188 -13.539062 18.050781 -14.269531 18.40625 -15.25 C 18.769531 -16.238281 19.054688 -17.175781 19.265625 -18.0625 C 19.984375 -20.945312 20.390625 -23.882812 20.484375 -26.875 C 20.585938 -29.863281 20.601562 -32.84375 20.53125 -35.8125 C 20.53125 -37.050781 20.828125 -38.039062 21.421875 -38.78125 C 22.023438 -39.53125 22.769531 -40.035156 23.65625 -40.296875 C 24.539062 -40.554688 25.429688 -40.554688 26.328125 -40.296875 C 27.234375 -40.035156 27.992188 -39.53125 28.609375 -38.78125 C 29.234375 -38.039062 29.546875 -37.050781 29.546875 -35.8125 Z M 29.546875 -35.8125 "/>
            </g>
        </g>
    </g>
    <g fill="#000000" fill-opacity="0.4">
        <g transform="translate(56.6695, 201.924866)">
            <g>
                <path d="M 33.46875 -36.78125 C 34.425781 -35.207031 35.082031 -33.445312 35.4375 -31.5 C 35.800781 -29.5625 35.960938 -27.597656 35.921875 -25.609375 C 35.890625 -23.617188 35.734375 -21.765625 35.453125 -20.046875 C 35.046875 -17.390625 34.21875 -14.878906 32.96875 -12.515625 C 31.726562 -10.148438 30.066406 -8.101562 27.984375 -6.375 C 25.984375 -4.726562 23.65625 -3.523438 21 -2.765625 C 18.351562 -2.003906 15.765625 -2.023438 13.234375 -2.828125 C 11.554688 -3.347656 10.09375 -4.207031 8.84375 -5.40625 C 7.601562 -6.613281 6.5625 -7.988281 5.71875 -9.53125 C 4.875 -11.082031 4.253906 -12.660156 3.859375 -14.265625 C 3.367188 -16.023438 3.082031 -18.054688 3 -20.359375 C 2.925781 -22.671875 3.085938 -25.03125 3.484375 -27.4375 C 3.890625 -29.851562 4.550781 -32.101562 5.46875 -34.1875 C 6.394531 -36.269531 7.640625 -37.992188 9.203125 -39.359375 C 10.804688 -41.003906 12.734375 -42.164062 14.984375 -42.84375 C 17.234375 -43.53125 19.539062 -43.765625 21.90625 -43.546875 C 24.269531 -43.328125 26.472656 -42.644531 28.515625 -41.5 C 30.566406 -40.351562 32.21875 -38.78125 33.46875 -36.78125 Z M 22.515625 -13.359375 C 23.878906 -14.640625 24.890625 -16.132812 25.546875 -17.84375 C 26.210938 -19.550781 26.625 -21.335938 26.78125 -23.203125 C 26.945312 -25.066406 26.90625 -26.882812 26.65625 -28.65625 C 26.414062 -30.414062 25.722656 -31.859375 24.578125 -32.984375 C 23.441406 -34.109375 21.929688 -34.648438 20.046875 -34.609375 C 19.003906 -34.609375 17.988281 -34.347656 17 -33.828125 C 16.019531 -33.304688 15.207031 -32.625 14.5625 -31.78125 C 13.84375 -30.78125 13.320312 -29.578125 13 -28.171875 C 12.675781 -26.765625 12.4375 -25.457031 12.28125 -24.25 C 11.914062 -21.5625 12.054688 -18.914062 12.703125 -16.3125 C 12.898438 -15.550781 13.171875 -14.785156 13.515625 -14.015625 C 13.859375 -13.253906 14.347656 -12.632812 14.984375 -12.15625 C 16.023438 -11.394531 17.21875 -11.125 18.5625 -11.34375 C 19.90625 -11.5625 21.082031 -12.09375 22.09375 -12.9375 C 22.207031 -13.0625 22.347656 -13.203125 22.515625 -13.359375 Z M 22.515625 -13.359375 "/>
            </g>
        </g>
    </g>
    <g fill="#000000" fill-opacity="0.4">
        <g transform="translate(95.608151, 201.924866)">
            <g>
                <path d="M 37.015625 -32.859375 C 37.378906 -31.097656 37.28125 -29.515625 36.71875 -28.109375 C 36.15625 -26.703125 35.257812 -25.46875 34.03125 -24.40625 C 32.8125 -23.34375 31.398438 -22.429688 29.796875 -21.671875 C 30.273438 -20.941406 30.644531 -20.144531 30.90625 -19.28125 C 31.164062 -18.425781 31.296875 -17.476562 31.296875 -16.4375 C 31.335938 -14.507812 30.945312 -12.742188 30.125 -11.140625 C 29.300781 -9.535156 28.195312 -8.109375 26.8125 -6.859375 C 25.425781 -5.617188 23.878906 -4.613281 22.171875 -3.84375 C 20.472656 -3.082031 18.757812 -2.601562 17.03125 -2.40625 C 14.539062 -2.082031 12.210938 -2.3125 10.046875 -3.09375 C 7.878906 -3.875 6.144531 -5.144531 4.84375 -6.90625 C 3.539062 -8.675781 2.929688 -10.910156 3.015625 -13.609375 C 3.128906 -18.015625 3.566406 -22.441406 4.328125 -26.890625 C 5.097656 -31.347656 5.78125 -35.765625 6.375 -40.140625 C 6.539062 -41.222656 7.144531 -42.066406 8.1875 -42.671875 C 9.226562 -43.273438 10.25 -43.515625 11.25 -43.390625 C 11.414062 -43.472656 11.554688 -43.535156 11.671875 -43.578125 C 13.398438 -44.210938 15.296875 -44.570312 17.359375 -44.65625 C 19.429688 -44.738281 21.519531 -44.546875 23.625 -44.078125 C 25.726562 -43.617188 27.710938 -42.898438 29.578125 -41.921875 C 31.441406 -40.941406 33.035156 -39.695312 34.359375 -38.1875 C 35.691406 -36.6875 36.578125 -34.910156 37.015625 -32.859375 Z M 21 -13.78125 C 21.925781 -14.78125 22.316406 -15.59375 22.171875 -16.21875 C 22.035156 -16.84375 21.585938 -17.304688 20.828125 -17.609375 C 20.066406 -17.910156 19.179688 -18.109375 18.171875 -18.203125 C 17.171875 -18.304688 16.269531 -18.378906 15.46875 -18.421875 C 15.144531 -18.378906 14.84375 -18.378906 14.5625 -18.421875 C 13.84375 -18.421875 13.179688 -18.5625 12.578125 -18.84375 C 12.535156 -18.320312 12.484375 -17.789062 12.421875 -17.25 C 12.367188 -16.707031 12.300781 -16.175781 12.21875 -15.65625 C 12.175781 -15.125 12.09375 -14.4375 11.96875 -13.59375 C 11.851562 -12.757812 11.976562 -12.140625 12.34375 -11.734375 C 12.863281 -11.210938 13.535156 -10.953125 14.359375 -10.953125 C 15.179688 -10.953125 16.03125 -11.101562 16.90625 -11.40625 C 17.789062 -11.707031 18.601562 -12.078125 19.34375 -12.515625 C 20.09375 -12.960938 20.644531 -13.382812 21 -13.78125 Z M 23.046875 -28.703125 C 23.367188 -28.828125 23.929688 -29.039062 24.734375 -29.34375 C 25.535156 -29.644531 26.273438 -29.972656 26.953125 -30.328125 C 27.640625 -30.691406 28.003906 -31.035156 28.046875 -31.359375 C 28.085938 -31.796875 27.828125 -32.222656 27.265625 -32.640625 C 26.703125 -33.066406 26.03125 -33.46875 25.25 -33.84375 C 24.46875 -34.226562 23.734375 -34.539062 23.046875 -34.78125 C 22.367188 -35.03125 21.910156 -35.191406 21.671875 -35.265625 C 20.421875 -35.628906 19.242188 -35.789062 18.140625 -35.75 C 17.035156 -35.707031 15.90625 -35.488281 14.75 -35.09375 C 14.539062 -33.800781 14.359375 -32.503906 14.203125 -31.203125 C 14.046875 -29.898438 13.882812 -28.609375 13.71875 -27.328125 C 14 -27.367188 14.28125 -27.390625 14.5625 -27.390625 C 14.800781 -27.429688 15.125 -27.429688 15.53125 -27.390625 C 16.8125 -27.429688 18.070312 -27.550781 19.3125 -27.75 C 20.5625 -27.945312 21.804688 -28.265625 23.046875 -28.703125 Z M 23.046875 -28.703125 "/>
            </g>
        </g>
    </g>
    <g fill="#000000" fill-opacity="0.4">
        <g transform="translate(135.810654, 201.924866)">
            <g/>
        </g>
    </g>
    <g fill="#000000" fill-opacity="0.4">
        <g transform="translate(154.106396, 201.924866)">
            <g>
                <path d="M 22.453125 -26 C 24.703125 -24.476562 26.476562 -22.492188 27.78125 -20.046875 C 29.082031 -17.597656 29.59375 -14.988281 29.3125 -12.21875 C 29.03125 -9.8125 28.207031 -7.742188 26.84375 -6.015625 C 25.476562 -4.296875 23.800781 -2.953125 21.8125 -1.984375 C 19.832031 -1.023438 17.726562 -0.492188 15.5 -0.390625 C 13.269531 -0.285156 11.128906 -0.65625 9.078125 -1.5 C 7.035156 -2.34375 5.3125 -3.707031 3.90625 -5.59375 C 3.1875 -6.519531 2.882812 -7.410156 3 -8.265625 C 3.125 -9.128906 3.5 -9.882812 4.125 -10.53125 C 4.75 -11.175781 5.519531 -11.628906 6.4375 -11.890625 C 7.363281 -12.148438 8.296875 -12.160156 9.234375 -11.921875 C 10.179688 -11.679688 10.992188 -11.097656 11.671875 -10.171875 C 11.992188 -9.734375 12.597656 -9.484375 13.484375 -9.421875 C 14.367188 -9.359375 15.25 -9.394531 16.125 -9.53125 C 17.007812 -9.675781 17.632812 -9.828125 18 -9.984375 C 18.84375 -10.390625 19.472656 -10.984375 19.890625 -11.765625 C 20.316406 -12.546875 20.46875 -13.398438 20.34375 -14.328125 C 20.21875 -15.453125 19.8125 -16.375 19.125 -17.09375 C 18.445312 -17.8125 17.632812 -18.441406 16.6875 -18.984375 C 15.75 -19.523438 14.800781 -20.046875 13.84375 -20.546875 C 12.882812 -21.054688 12.039062 -21.609375 11.3125 -22.203125 C 9.3125 -23.972656 8.085938 -25.890625 7.640625 -27.953125 C 7.203125 -30.023438 7.351562 -32.09375 8.09375 -34.15625 C 8.832031 -36.21875 9.984375 -38.09375 11.546875 -39.78125 C 13.117188 -41.46875 14.90625 -42.773438 16.90625 -43.703125 C 17.988281 -44.222656 18.992188 -44.359375 19.921875 -44.109375 C 20.847656 -43.867188 21.640625 -43.414062 22.296875 -42.75 C 22.960938 -42.09375 23.414062 -41.320312 23.65625 -40.4375 C 23.894531 -39.5625 23.851562 -38.710938 23.53125 -37.890625 C 23.207031 -37.066406 22.523438 -36.414062 21.484375 -35.9375 C 20.804688 -35.613281 20.015625 -35.171875 19.109375 -34.609375 C 18.203125 -34.046875 17.457031 -33.375 16.875 -32.59375 C 16.300781 -31.8125 16.191406 -30.9375 16.546875 -29.96875 C 16.753906 -29.332031 17.226562 -28.78125 17.96875 -28.3125 C 18.707031 -27.851562 19.5 -27.441406 20.34375 -27.078125 C 21.1875 -26.722656 21.890625 -26.363281 22.453125 -26 Z M 22.453125 -26 "/>
            </g>
        </g>
    </g>
    <g fill="#000000" fill-opacity="0.4">
        <g transform="translate(186.485056, 201.924866)">
            <g>
                <path d="M 25.09375 -12.703125 C 26.257812 -12.660156 27.191406 -12.316406 27.890625 -11.671875 C 28.597656 -11.035156 29.0625 -10.265625 29.28125 -9.359375 C 29.5 -8.453125 29.5 -7.554688 29.28125 -6.671875 C 29.0625 -5.796875 28.597656 -5.066406 27.890625 -4.484375 C 27.191406 -3.898438 26.257812 -3.628906 25.09375 -3.671875 C 22.363281 -3.796875 19.632812 -3.785156 16.90625 -3.640625 C 14.175781 -3.503906 11.453125 -3.210938 8.734375 -2.765625 C 7.890625 -2.648438 7.003906 -2.738281 6.078125 -3.03125 C 5.148438 -3.332031 4.375 -3.820312 3.75 -4.5 C 3.132812 -5.1875 2.90625 -6.070312 3.0625 -7.15625 C 3.75 -12.695312 4.503906 -18.234375 5.328125 -23.765625 C 6.148438 -29.304688 7.039062 -34.847656 8 -40.390625 C 8.125 -41.066406 8.367188 -41.644531 8.734375 -42.125 C 9.046875 -42.6875 9.503906 -43.160156 10.109375 -43.546875 C 10.710938 -43.929688 11.457031 -44.140625 12.34375 -44.171875 C 16.675781 -44.296875 21.007812 -44.21875 25.34375 -43.9375 C 26.5 -43.851562 27.425781 -43.476562 28.125 -42.8125 C 28.832031 -42.15625 29.296875 -41.375 29.515625 -40.46875 C 29.742188 -39.570312 29.742188 -38.679688 29.515625 -37.796875 C 29.296875 -36.910156 28.832031 -36.1875 28.125 -35.625 C 27.425781 -35.0625 26.5 -34.820312 25.34375 -34.90625 C 22.375 -35.101562 19.34375 -35.203125 16.25 -35.203125 C 16.050781 -34.046875 15.847656 -32.882812 15.640625 -31.71875 C 15.441406 -30.550781 15.265625 -29.390625 15.109375 -28.234375 C 16.753906 -28.191406 18.335938 -28.085938 19.859375 -27.921875 C 21.066406 -27.804688 22.117188 -27.359375 23.015625 -26.578125 C 23.921875 -25.796875 24.375 -24.738281 24.375 -23.40625 C 24.375 -22.644531 24.160156 -21.90625 23.734375 -21.1875 C 23.316406 -20.46875 22.765625 -19.882812 22.078125 -19.4375 C 21.398438 -19 20.660156 -18.820312 19.859375 -18.90625 C 17.816406 -19.101562 15.769531 -19.203125 13.71875 -19.203125 C 13.5625 -18.078125 13.398438 -16.929688 13.234375 -15.765625 C 13.078125 -14.609375 12.921875 -13.46875 12.765625 -12.34375 C 14.804688 -12.539062 16.847656 -12.664062 18.890625 -12.71875 C 20.941406 -12.78125 23.007812 -12.773438 25.09375 -12.703125 Z M 25.09375 -12.703125 "/>
            </g>
        </g>
    </g>
    <g fill="#000000" fill-opacity="0.4">
        <g transform="translate(219.164632, 201.924866)">
            <g>
                <path d="M 25.09375 -12.703125 C 26.257812 -12.660156 27.191406 -12.316406 27.890625 -11.671875 C 28.597656 -11.035156 29.0625 -10.265625 29.28125 -9.359375 C 29.5 -8.453125 29.5 -7.554688 29.28125 -6.671875 C 29.0625 -5.796875 28.597656 -5.066406 27.890625 -4.484375 C 27.191406 -3.898438 26.257812 -3.628906 25.09375 -3.671875 C 22.363281 -3.796875 19.632812 -3.785156 16.90625 -3.640625 C 14.175781 -3.503906 11.453125 -3.210938 8.734375 -2.765625 C 7.890625 -2.648438 7.003906 -2.738281 6.078125 -3.03125 C 5.148438 -3.332031 4.375 -3.820312 3.75 -4.5 C 3.132812 -5.1875 2.90625 -6.070312 3.0625 -7.15625 C 3.75 -12.695312 4.503906 -18.234375 5.328125 -23.765625 C 6.148438 -29.304688 7.039062 -34.847656 8 -40.390625 C 8.125 -41.066406 8.367188 -41.644531 8.734375 -42.125 C 9.046875 -42.6875 9.503906 -43.160156 10.109375 -43.546875 C 10.710938 -43.929688 11.457031 -44.140625 12.34375 -44.171875 C 16.675781 -44.296875 21.007812 -44.21875 25.34375 -43.9375 C 26.5 -43.851562 27.425781 -43.476562 28.125 -42.8125 C 28.832031 -42.15625 29.296875 -41.375 29.515625 -40.46875 C 29.742188 -39.570312 29.742188 -38.679688 29.515625 -37.796875 C 29.296875 -36.910156 28.832031 -36.1875 28.125 -35.625 C 27.425781 -35.0625 26.5 -34.820312 25.34375 -34.90625 C 22.375 -35.101562 19.34375 -35.203125 16.25 -35.203125 C 16.050781 -34.046875 15.847656 -32.882812 15.640625 -31.71875 C 15.441406 -30.550781 15.265625 -29.390625 15.109375 -28.234375 C 16.753906 -28.191406 18.335938 -28.085938 19.859375 -27.921875 C 21.066406 -27.804688 22.117188 -27.359375 23.015625 -26.578125 C 23.921875 -25.796875 24.375 -24.738281 24.375 -23.40625 C 24.375 -22.644531 24.160156 -21.90625 23.734375 -21.1875 C 23.316406 -20.46875 22.765625 -19.882812 22.078125 -19.4375 C 21.398438 -19 20.660156 -18.820312 19.859375 -18.90625 C 17.816406 -19.101562 15.769531 -19.203125 13.71875 -19.203125 C 13.5625 -18.078125 13.398438 -16.929688 13.234375 -15.765625 C 13.078125 -14.609375 12.921875 -13.46875 12.765625 -12.34375 C 14.804688 -12.539062 16.847656 -12.664062 18.890625 -12.71875 C 20.941406 -12.78125 23.007812 -12.773438 25.09375 -12.703125 Z M 25.09375 -12.703125 "/>
            </g>
        </g>
    </g>
    <g fill="#000000" fill-opacity="0.4">
        <g transform="translate(251.844208, 201.924866)">
            <g>
                <path d="M 30.09375 -37.921875 C 28.882812 -35.910156 27.585938 -33.898438 26.203125 -31.890625 C 24.828125 -29.890625 23.234375 -28.109375 21.421875 -26.546875 C 25.273438 -22.171875 27.460938 -16.953125 27.984375 -10.890625 C 28.066406 -9.734375 27.835938 -8.8125 27.296875 -8.125 C 26.753906 -7.445312 26.050781 -6.984375 25.1875 -6.734375 C 24.320312 -6.492188 23.425781 -6.492188 22.5 -6.734375 C 21.582031 -6.984375 20.78125 -7.457031 20.09375 -8.15625 C 19.414062 -8.851562 19.035156 -9.765625 18.953125 -10.890625 C 18.753906 -13.015625 18.171875 -15.050781 17.203125 -17 C 16.242188 -18.945312 14.984375 -20.625 13.421875 -22.03125 C 13.015625 -16.96875 12.472656 -11.929688 11.796875 -6.921875 C 11.671875 -6.117188 11.296875 -5.445312 10.671875 -4.90625 C 10.054688 -4.363281 9.335938 -3.988281 8.515625 -3.78125 C 7.691406 -3.582031 6.921875 -3.585938 6.203125 -3.796875 C 4.910156 -4.148438 4.023438 -4.859375 3.546875 -5.921875 C 3.066406 -6.992188 2.90625 -8.128906 3.0625 -9.328125 C 3.832031 -15.023438 4.40625 -20.742188 4.78125 -26.484375 C 5.164062 -32.222656 5.378906 -37.976562 5.421875 -43.75 C 5.421875 -44.914062 5.71875 -45.835938 6.3125 -46.515625 C 6.914062 -47.203125 7.671875 -47.664062 8.578125 -47.90625 C 9.484375 -48.144531 10.382812 -48.144531 11.28125 -47.90625 C 12.1875 -47.664062 12.9375 -47.203125 13.53125 -46.515625 C 14.132812 -45.835938 14.4375 -44.914062 14.4375 -43.75 C 14.40625 -41.789062 14.367188 -39.835938 14.328125 -37.890625 C 14.285156 -35.941406 14.203125 -33.984375 14.078125 -32.015625 C 15.285156 -32.703125 16.390625 -33.664062 17.390625 -34.90625 C 18.398438 -36.15625 19.304688 -37.460938 20.109375 -38.828125 C 20.910156 -40.191406 21.628906 -41.414062 22.265625 -42.5 C 22.867188 -43.5 23.601562 -44.148438 24.46875 -44.453125 C 25.332031 -44.753906 26.210938 -44.773438 27.109375 -44.515625 C 28.015625 -44.253906 28.796875 -43.800781 29.453125 -43.15625 C 30.117188 -42.507812 30.53125 -41.722656 30.6875 -40.796875 C 30.851562 -39.878906 30.65625 -38.921875 30.09375 -37.921875 Z M 30.09375 -37.921875 "/>
            </g>
        </g>
    </g>
    <g fill="#000000" fill-opacity="0.4">
        <g transform="translate(285.546907, 201.924866)">
            <g>
                <path d="M 25.09375 -12.703125 C 26.257812 -12.660156 27.191406 -12.316406 27.890625 -11.671875 C 28.597656 -11.035156 29.0625 -10.265625 29.28125 -9.359375 C 29.5 -8.453125 29.5 -7.554688 29.28125 -6.671875 C 29.0625 -5.796875 28.597656 -5.066406 27.890625 -4.484375 C 27.191406 -3.898438 26.257812 -3.628906 25.09375 -3.671875 C 22.363281 -3.796875 19.632812 -3.785156 16.90625 -3.640625 C 14.175781 -3.503906 11.453125 -3.210938 8.734375 -2.765625 C 7.890625 -2.648438 7.003906 -2.738281 6.078125 -3.03125 C 5.148438 -3.332031 4.375 -3.820312 3.75 -4.5 C 3.132812 -5.1875 2.90625 -6.070312 3.0625 -7.15625 C 3.75 -12.695312 4.503906 -18.234375 5.328125 -23.765625 C 6.148438 -29.304688 7.039062 -34.847656 8 -40.390625 C 8.125 -41.066406 8.367188 -41.644531 8.734375 -42.125 C 9.046875 -42.6875 9.503906 -43.160156 10.109375 -43.546875 C 10.710938 -43.929688 11.457031 -44.140625 12.34375 -44.171875 C 16.675781 -44.296875 21.007812 -44.21875 25.34375 -43.9375 C 26.5 -43.851562 27.425781 -43.476562 28.125 -42.8125 C 28.832031 -42.15625 29.296875 -41.375 29.515625 -40.46875 C 29.742188 -39.570312 29.742188 -38.679688 29.515625 -37.796875 C 29.296875 -36.910156 28.832031 -36.1875 28.125 -35.625 C 27.425781 -35.0625 26.5 -34.820312 25.34375 -34.90625 C 22.375 -35.101562 19.34375 -35.203125 16.25 -35.203125 C 16.050781 -34.046875 15.847656 -32.882812 15.640625 -31.71875 C 15.441406 -30.550781 15.265625 -29.390625 15.109375 -28.234375 C 16.753906 -28.191406 18.335938 -28.085938 19.859375 -27.921875 C 21.066406 -27.804688 22.117188 -27.359375 23.015625 -26.578125 C 23.921875 -25.796875 24.375 -24.738281 24.375 -23.40625 C 24.375 -22.644531 24.160156 -21.90625 23.734375 -21.1875 C 23.316406 -20.46875 22.765625 -19.882812 22.078125 -19.4375 C 21.398438 -19 20.660156 -18.820312 19.859375 -18.90625 C 17.816406 -19.101562 15.769531 -19.203125 13.71875 -19.203125 C 13.5625 -18.078125 13.398438 -16.929688 13.234375 -15.765625 C 13.078125 -14.609375 12.921875 -13.46875 12.765625 -12.34375 C 14.804688 -12.539062 16.847656 -12.664062 18.890625 -12.71875 C 20.941406 -12.78125 23.007812 -12.773438 25.09375 -12.703125 Z M 25.09375 -12.703125 "/>
            </g>
        </g>
    </g>
    <g fill="#000000" fill-opacity="0.4">
        <g transform="translate(318.226483, 201.924866)">
            <g>
                <path d="M 34.25 -5.65625 C 34.925781 -4.695312 35.203125 -3.785156 35.078125 -2.921875 C 34.960938 -2.054688 34.582031 -1.300781 33.9375 -0.65625 C 33.300781 -0.0195312 32.53125 0.425781 31.625 0.6875 C 30.726562 0.945312 29.804688 0.945312 28.859375 0.6875 C 27.921875 0.425781 27.109375 -0.160156 26.421875 -1.078125 C 24.617188 -3.566406 22.601562 -5.851562 20.375 -7.9375 C 18.144531 -10.03125 15.75 -11.921875 13.1875 -13.609375 C 12.976562 -11.234375 12.785156 -8.851562 12.609375 -6.46875 C 12.429688 -4.082031 12.238281 -1.707031 12.03125 0.65625 C 11.957031 1.820312 11.585938 2.742188 10.921875 3.421875 C 10.265625 4.109375 9.472656 4.570312 8.546875 4.8125 C 7.617188 5.050781 6.722656 5.0625 5.859375 4.84375 C 5.003906 4.625 4.296875 4.160156 3.734375 3.453125 C 3.171875 2.753906 2.929688 1.820312 3.015625 0.65625 C 3.367188 -3.707031 3.644531 -8.15625 3.84375 -12.6875 C 4.050781 -17.226562 4.597656 -21.664062 5.484375 -26 C 5.921875 -28.25 6.738281 -30.414062 7.9375 -32.5 C 9.144531 -34.582031 10.679688 -36.304688 12.546875 -37.671875 C 14.410156 -39.035156 16.585938 -39.78125 19.078125 -39.90625 C 20.804688 -39.988281 22.441406 -39.664062 23.984375 -38.9375 C 25.523438 -38.21875 26.835938 -37.210938 27.921875 -35.921875 C 29.003906 -34.640625 29.738281 -33.195312 30.125 -31.59375 C 30.507812 -29.988281 30.421875 -28.328125 29.859375 -26.609375 C 29.296875 -24.878906 28.378906 -23.25 27.109375 -21.71875 C 25.847656 -20.195312 24.394531 -18.875 22.75 -17.75 C 27.039062 -14.257812 30.875 -10.226562 34.25 -5.65625 Z M 18.109375 -25.703125 C 18.359375 -25.941406 18.757812 -26.3125 19.3125 -26.8125 C 19.875 -27.3125 20.375 -27.84375 20.8125 -28.40625 C 21.257812 -28.96875 21.441406 -29.410156 21.359375 -29.734375 C 21.203125 -30.578125 20.890625 -31.035156 20.421875 -31.109375 C 19.960938 -31.191406 19.441406 -31.0625 18.859375 -30.71875 C 18.285156 -30.382812 17.71875 -29.925781 17.15625 -29.34375 C 16.59375 -28.757812 16.109375 -28.207031 15.703125 -27.6875 C 15.304688 -27.164062 15.046875 -26.785156 14.921875 -26.546875 C 14.597656 -25.617188 14.316406 -24.613281 14.078125 -23.53125 C 14.878906 -23.65625 15.601562 -23.90625 16.25 -24.28125 C 16.894531 -24.664062 17.515625 -25.140625 18.109375 -25.703125 Z M 18.109375 -25.703125 "/>
            </g>
        </g>
    </g>
    <g fill="#59b379" fill-opacity="1">
        <g transform="translate(21.330096, 199.265032)">
            <g>
                <path d="M 29.546875 -35.8125 C 29.585938 -33.519531 29.609375 -31.03125 29.609375 -28.34375 C 29.609375 -25.65625 29.445312 -22.96875 29.125 -20.28125 C 28.8125 -17.59375 28.210938 -15.054688 27.328125 -12.671875 C 26.441406 -10.285156 25.15625 -8.226562 23.46875 -6.5 C 21.75 -4.738281 19.882812 -3.625 17.875 -3.15625 C 15.863281 -2.695312 13.882812 -2.785156 11.9375 -3.421875 C 10 -4.066406 8.265625 -5.160156 6.734375 -6.703125 C 5.210938 -8.253906 4.070312 -10.15625 3.3125 -12.40625 C 2.90625 -13.5625 2.875 -14.582031 3.21875 -15.46875 C 3.5625 -16.351562 4.125 -17.035156 4.90625 -17.515625 C 5.6875 -17.992188 6.554688 -18.242188 7.515625 -18.265625 C 8.484375 -18.285156 9.378906 -18.035156 10.203125 -17.515625 C 11.023438 -16.992188 11.617188 -16.148438 11.984375 -14.984375 C 12.335938 -13.941406 12.984375 -13.207031 13.921875 -12.78125 C 14.867188 -12.363281 15.804688 -12.457031 16.734375 -13.0625 C 17.492188 -13.539062 18.050781 -14.269531 18.40625 -15.25 C 18.769531 -16.238281 19.054688 -17.175781 19.265625 -18.0625 C 19.984375 -20.945312 20.390625 -23.882812 20.484375 -26.875 C 20.585938 -29.863281 20.601562 -32.84375 20.53125 -35.8125 C 20.53125 -37.050781 20.828125 -38.039062 21.421875 -38.78125 C 22.023438 -39.53125 22.769531 -40.035156 23.65625 -40.296875 C 24.539062 -40.554688 25.429688 -40.554688 26.328125 -40.296875 C 27.234375 -40.035156 27.992188 -39.53125 28.609375 -38.78125 C 29.234375 -38.039062 29.546875 -37.050781 29.546875 -35.8125 Z M 29.546875 -35.8125 "/>
            </g>
        </g>
    </g>
    <g fill="#59b379" fill-opacity="1">
        <g transform="translate(54.009672, 199.265032)">
            <g>
                <path d="M 33.46875 -36.78125 C 34.425781 -35.207031 35.082031 -33.445312 35.4375 -31.5 C 35.800781 -29.5625 35.960938 -27.597656 35.921875 -25.609375 C 35.890625 -23.617188 35.734375 -21.765625 35.453125 -20.046875 C 35.046875 -17.390625 34.21875 -14.878906 32.96875 -12.515625 C 31.726562 -10.148438 30.066406 -8.101562 27.984375 -6.375 C 25.984375 -4.726562 23.65625 -3.523438 21 -2.765625 C 18.351562 -2.003906 15.765625 -2.023438 13.234375 -2.828125 C 11.554688 -3.347656 10.09375 -4.207031 8.84375 -5.40625 C 7.601562 -6.613281 6.5625 -7.988281 5.71875 -9.53125 C 4.875 -11.082031 4.253906 -12.660156 3.859375 -14.265625 C 3.367188 -16.023438 3.082031 -18.054688 3 -20.359375 C 2.925781 -22.671875 3.085938 -25.03125 3.484375 -27.4375 C 3.890625 -29.851562 4.550781 -32.101562 5.46875 -34.1875 C 6.394531 -36.269531 7.640625 -37.992188 9.203125 -39.359375 C 10.804688 -41.003906 12.734375 -42.164062 14.984375 -42.84375 C 17.234375 -43.53125 19.539062 -43.765625 21.90625 -43.546875 C 24.269531 -43.328125 26.472656 -42.644531 28.515625 -41.5 C 30.566406 -40.351562 32.21875 -38.78125 33.46875 -36.78125 Z M 22.515625 -13.359375 C 23.878906 -14.640625 24.890625 -16.132812 25.546875 -17.84375 C 26.210938 -19.550781 26.625 -21.335938 26.78125 -23.203125 C 26.945312 -25.066406 26.90625 -26.882812 26.65625 -28.65625 C 26.414062 -30.414062 25.722656 -31.859375 24.578125 -32.984375 C 23.441406 -34.109375 21.929688 -34.648438 20.046875 -34.609375 C 19.003906 -34.609375 17.988281 -34.347656 17 -33.828125 C 16.019531 -33.304688 15.207031 -32.625 14.5625 -31.78125 C 13.84375 -30.78125 13.320312 -29.578125 13 -28.171875 C 12.675781 -26.765625 12.4375 -25.457031 12.28125 -24.25 C 11.914062 -21.5625 12.054688 -18.914062 12.703125 -16.3125 C 12.898438 -15.550781 13.171875 -14.785156 13.515625 -14.015625 C 13.859375 -13.253906 14.347656 -12.632812 14.984375 -12.15625 C 16.023438 -11.394531 17.21875 -11.125 18.5625 -11.34375 C 19.90625 -11.5625 21.082031 -12.09375 22.09375 -12.9375 C 22.207031 -13.0625 22.347656 -13.203125 22.515625 -13.359375 Z M 22.515625 -13.359375 "/>
            </g>
        </g>
    </g>
    <g fill="#59b379" fill-opacity="1">
        <g transform="translate(92.948323, 199.265032)">
            <g>
                <path d="M 37.015625 -32.859375 C 37.378906 -31.097656 37.28125 -29.515625 36.71875 -28.109375 C 36.15625 -26.703125 35.257812 -25.46875 34.03125 -24.40625 C 32.8125 -23.34375 31.398438 -22.429688 29.796875 -21.671875 C 30.273438 -20.941406 30.644531 -20.144531 30.90625 -19.28125 C 31.164062 -18.425781 31.296875 -17.476562 31.296875 -16.4375 C 31.335938 -14.507812 30.945312 -12.742188 30.125 -11.140625 C 29.300781 -9.535156 28.195312 -8.109375 26.8125 -6.859375 C 25.425781 -5.617188 23.878906 -4.613281 22.171875 -3.84375 C 20.472656 -3.082031 18.757812 -2.601562 17.03125 -2.40625 C 14.539062 -2.082031 12.210938 -2.3125 10.046875 -3.09375 C 7.878906 -3.875 6.144531 -5.144531 4.84375 -6.90625 C 3.539062 -8.675781 2.929688 -10.910156 3.015625 -13.609375 C 3.128906 -18.015625 3.566406 -22.441406 4.328125 -26.890625 C 5.097656 -31.347656 5.78125 -35.765625 6.375 -40.140625 C 6.539062 -41.222656 7.144531 -42.066406 8.1875 -42.671875 C 9.226562 -43.273438 10.25 -43.515625 11.25 -43.390625 C 11.414062 -43.472656 11.554688 -43.535156 11.671875 -43.578125 C 13.398438 -44.210938 15.296875 -44.570312 17.359375 -44.65625 C 19.429688 -44.738281 21.519531 -44.546875 23.625 -44.078125 C 25.726562 -43.617188 27.710938 -42.898438 29.578125 -41.921875 C 31.441406 -40.941406 33.035156 -39.695312 34.359375 -38.1875 C 35.691406 -36.6875 36.578125 -34.910156 37.015625 -32.859375 Z M 21 -13.78125 C 21.925781 -14.78125 22.316406 -15.59375 22.171875 -16.21875 C 22.035156 -16.84375 21.585938 -17.304688 20.828125 -17.609375 C 20.066406 -17.910156 19.179688 -18.109375 18.171875 -18.203125 C 17.171875 -18.304688 16.269531 -18.378906 15.46875 -18.421875 C 15.144531 -18.378906 14.84375 -18.378906 14.5625 -18.421875 C 13.84375 -18.421875 13.179688 -18.5625 12.578125 -18.84375 C 12.535156 -18.320312 12.484375 -17.789062 12.421875 -17.25 C 12.367188 -16.707031 12.300781 -16.175781 12.21875 -15.65625 C 12.175781 -15.125 12.09375 -14.4375 11.96875 -13.59375 C 11.851562 -12.757812 11.976562 -12.140625 12.34375 -11.734375 C 12.863281 -11.210938 13.535156 -10.953125 14.359375 -10.953125 C 15.179688 -10.953125 16.03125 -11.101562 16.90625 -11.40625 C 17.789062 -11.707031 18.601562 -12.078125 19.34375 -12.515625 C 20.09375 -12.960938 20.644531 -13.382812 21 -13.78125 Z M 23.046875 -28.703125 C 23.367188 -28.828125 23.929688 -29.039062 24.734375 -29.34375 C 25.535156 -29.644531 26.273438 -29.972656 26.953125 -30.328125 C 27.640625 -30.691406 28.003906 -31.035156 28.046875 -31.359375 C 28.085938 -31.796875 27.828125 -32.222656 27.265625 -32.640625 C 26.703125 -33.066406 26.03125 -33.46875 25.25 -33.84375 C 24.46875 -34.226562 23.734375 -34.539062 23.046875 -34.78125 C 22.367188 -35.03125 21.910156 -35.191406 21.671875 -35.265625 C 20.421875 -35.628906 19.242188 -35.789062 18.140625 -35.75 C 17.035156 -35.707031 15.90625 -35.488281 14.75 -35.09375 C 14.539062 -33.800781 14.359375 -32.503906 14.203125 -31.203125 C 14.046875 -29.898438 13.882812 -28.609375 13.71875 -27.328125 C 14 -27.367188 14.28125 -27.390625 14.5625 -27.390625 C 14.800781 -27.429688 15.125 -27.429688 15.53125 -27.390625 C 16.8125 -27.429688 18.070312 -27.550781 19.3125 -27.75 C 20.5625 -27.945312 21.804688 -28.265625 23.046875 -28.703125 Z M 23.046875 -28.703125 "/>
            </g>
        </g>
    </g>
    <g fill="#59b379" fill-opacity="1">
        <g transform="translate(133.150826, 199.265032)">
            <g/>
        </g>
    </g>
    <g fill="#59b379" fill-opacity="1">
        <g transform="translate(151.446568, 199.265032)">
            <g>
                <path d="M 22.453125 -26 C 24.703125 -24.476562 26.476562 -22.492188 27.78125 -20.046875 C 29.082031 -17.597656 29.59375 -14.988281 29.3125 -12.21875 C 29.03125 -9.8125 28.207031 -7.742188 26.84375 -6.015625 C 25.476562 -4.296875 23.800781 -2.953125 21.8125 -1.984375 C 19.832031 -1.023438 17.726562 -0.492188 15.5 -0.390625 C 13.269531 -0.285156 11.128906 -0.65625 9.078125 -1.5 C 7.035156 -2.34375 5.3125 -3.707031 3.90625 -5.59375 C 3.1875 -6.519531 2.882812 -7.410156 3 -8.265625 C 3.125 -9.128906 3.5 -9.882812 4.125 -10.53125 C 4.75 -11.175781 5.519531 -11.628906 6.4375 -11.890625 C 7.363281 -12.148438 8.296875 -12.160156 9.234375 -11.921875 C 10.179688 -11.679688 10.992188 -11.097656 11.671875 -10.171875 C 11.992188 -9.734375 12.597656 -9.484375 13.484375 -9.421875 C 14.367188 -9.359375 15.25 -9.394531 16.125 -9.53125 C 17.007812 -9.675781 17.632812 -9.828125 18 -9.984375 C 18.84375 -10.390625 19.472656 -10.984375 19.890625 -11.765625 C 20.316406 -12.546875 20.46875 -13.398438 20.34375 -14.328125 C 20.21875 -15.453125 19.8125 -16.375 19.125 -17.09375 C 18.445312 -17.8125 17.632812 -18.441406 16.6875 -18.984375 C 15.75 -19.523438 14.800781 -20.046875 13.84375 -20.546875 C 12.882812 -21.054688 12.039062 -21.609375 11.3125 -22.203125 C 9.3125 -23.972656 8.085938 -25.890625 7.640625 -27.953125 C 7.203125 -30.023438 7.351562 -32.09375 8.09375 -34.15625 C 8.832031 -36.21875 9.984375 -38.09375 11.546875 -39.78125 C 13.117188 -41.46875 14.90625 -42.773438 16.90625 -43.703125 C 17.988281 -44.222656 18.992188 -44.359375 19.921875 -44.109375 C 20.847656 -43.867188 21.640625 -43.414062 22.296875 -42.75 C 22.960938 -42.09375 23.414062 -41.320312 23.65625 -40.4375 C 23.894531 -39.5625 23.851562 -38.710938 23.53125 -37.890625 C 23.207031 -37.066406 22.523438 -36.414062 21.484375 -35.9375 C 20.804688 -35.613281 20.015625 -35.171875 19.109375 -34.609375 C 18.203125 -34.046875 17.457031 -33.375 16.875 -32.59375 C 16.300781 -31.8125 16.191406 -30.9375 16.546875 -29.96875 C 16.753906 -29.332031 17.226562 -28.78125 17.96875 -28.3125 C 18.707031 -27.851562 19.5 -27.441406 20.34375 -27.078125 C 21.1875 -26.722656 21.890625 -26.363281 22.453125 -26 Z M 22.453125 -26 "/>
            </g>
        </g>
    </g>
    <g fill="#59b379" fill-opacity="1">
        <g transform="translate(183.825227, 199.265032)">
            <g>
                <path d="M 25.09375 -12.703125 C 26.257812 -12.660156 27.191406 -12.316406 27.890625 -11.671875 C 28.597656 -11.035156 29.0625 -10.265625 29.28125 -9.359375 C 29.5 -8.453125 29.5 -7.554688 29.28125 -6.671875 C 29.0625 -5.796875 28.597656 -5.066406 27.890625 -4.484375 C 27.191406 -3.898438 26.257812 -3.628906 25.09375 -3.671875 C 22.363281 -3.796875 19.632812 -3.785156 16.90625 -3.640625 C 14.175781 -3.503906 11.453125 -3.210938 8.734375 -2.765625 C 7.890625 -2.648438 7.003906 -2.738281 6.078125 -3.03125 C 5.148438 -3.332031 4.375 -3.820312 3.75 -4.5 C 3.132812 -5.1875 2.90625 -6.070312 3.0625 -7.15625 C 3.75 -12.695312 4.503906 -18.234375 5.328125 -23.765625 C 6.148438 -29.304688 7.039062 -34.847656 8 -40.390625 C 8.125 -41.066406 8.367188 -41.644531 8.734375 -42.125 C 9.046875 -42.6875 9.503906 -43.160156 10.109375 -43.546875 C 10.710938 -43.929688 11.457031 -44.140625 12.34375 -44.171875 C 16.675781 -44.296875 21.007812 -44.21875 25.34375 -43.9375 C 26.5 -43.851562 27.425781 -43.476562 28.125 -42.8125 C 28.832031 -42.15625 29.296875 -41.375 29.515625 -40.46875 C 29.742188 -39.570312 29.742188 -38.679688 29.515625 -37.796875 C 29.296875 -36.910156 28.832031 -36.1875 28.125 -35.625 C 27.425781 -35.0625 26.5 -34.820312 25.34375 -34.90625 C 22.375 -35.101562 19.34375 -35.203125 16.25 -35.203125 C 16.050781 -34.046875 15.847656 -32.882812 15.640625 -31.71875 C 15.441406 -30.550781 15.265625 -29.390625 15.109375 -28.234375 C 16.753906 -28.191406 18.335938 -28.085938 19.859375 -27.921875 C 21.066406 -27.804688 22.117188 -27.359375 23.015625 -26.578125 C 23.921875 -25.796875 24.375 -24.738281 24.375 -23.40625 C 24.375 -22.644531 24.160156 -21.90625 23.734375 -21.1875 C 23.316406 -20.46875 22.765625 -19.882812 22.078125 -19.4375 C 21.398438 -19 20.660156 -18.820312 19.859375 -18.90625 C 17.816406 -19.101562 15.769531 -19.203125 13.71875 -19.203125 C 13.5625 -18.078125 13.398438 -16.929688 13.234375 -15.765625 C 13.078125 -14.609375 12.921875 -13.46875 12.765625 -12.34375 C 14.804688 -12.539062 16.847656 -12.664062 18.890625 -12.71875 C 20.941406 -12.78125 23.007812 -12.773438 25.09375 -12.703125 Z M 25.09375 -12.703125 "/>
            </g>
        </g>
    </g>
    <g fill="#59b379" fill-opacity="1">
        <g transform="translate(216.504804, 199.265032)">
            <g>
                <path d="M 25.09375 -12.703125 C 26.257812 -12.660156 27.191406 -12.316406 27.890625 -11.671875 C 28.597656 -11.035156 29.0625 -10.265625 29.28125 -9.359375 C 29.5 -8.453125 29.5 -7.554688 29.28125 -6.671875 C 29.0625 -5.796875 28.597656 -5.066406 27.890625 -4.484375 C 27.191406 -3.898438 26.257812 -3.628906 25.09375 -3.671875 C 22.363281 -3.796875 19.632812 -3.785156 16.90625 -3.640625 C 14.175781 -3.503906 11.453125 -3.210938 8.734375 -2.765625 C 7.890625 -2.648438 7.003906 -2.738281 6.078125 -3.03125 C 5.148438 -3.332031 4.375 -3.820312 3.75 -4.5 C 3.132812 -5.1875 2.90625 -6.070312 3.0625 -7.15625 C 3.75 -12.695312 4.503906 -18.234375 5.328125 -23.765625 C 6.148438 -29.304688 7.039062 -34.847656 8 -40.390625 C 8.125 -41.066406 8.367188 -41.644531 8.734375 -42.125 C 9.046875 -42.6875 9.503906 -43.160156 10.109375 -43.546875 C 10.710938 -43.929688 11.457031 -44.140625 12.34375 -44.171875 C 16.675781 -44.296875 21.007812 -44.21875 25.34375 -43.9375 C 26.5 -43.851562 27.425781 -43.476562 28.125 -42.8125 C 28.832031 -42.15625 29.296875 -41.375 29.515625 -40.46875 C 29.742188 -39.570312 29.742188 -38.679688 29.515625 -37.796875 C 29.296875 -36.910156 28.832031 -36.1875 28.125 -35.625 C 27.425781 -35.0625 26.5 -34.820312 25.34375 -34.90625 C 22.375 -35.101562 19.34375 -35.203125 16.25 -35.203125 C 16.050781 -34.046875 15.847656 -32.882812 15.640625 -31.71875 C 15.441406 -30.550781 15.265625 -29.390625 15.109375 -28.234375 C 16.753906 -28.191406 18.335938 -28.085938 19.859375 -27.921875 C 21.066406 -27.804688 22.117188 -27.359375 23.015625 -26.578125 C 23.921875 -25.796875 24.375 -24.738281 24.375 -23.40625 C 24.375 -22.644531 24.160156 -21.90625 23.734375 -21.1875 C 23.316406 -20.46875 22.765625 -19.882812 22.078125 -19.4375 C 21.398438 -19 20.660156 -18.820312 19.859375 -18.90625 C 17.816406 -19.101562 15.769531 -19.203125 13.71875 -19.203125 C 13.5625 -18.078125 13.398438 -16.929688 13.234375 -15.765625 C 13.078125 -14.609375 12.921875 -13.46875 12.765625 -12.34375 C 14.804688 -12.539062 16.847656 -12.664062 18.890625 -12.71875 C 20.941406 -12.78125 23.007812 -12.773438 25.09375 -12.703125 Z M 25.09375 -12.703125 "/>
            </g>
        </g>
    </g>
    <g fill="#59b379" fill-opacity="1">
        <g transform="translate(249.18438, 199.265032)">
            <g>
                <path d="M 30.09375 -37.921875 C 28.882812 -35.910156 27.585938 -33.898438 26.203125 -31.890625 C 24.828125 -29.890625 23.234375 -28.109375 21.421875 -26.546875 C 25.273438 -22.171875 27.460938 -16.953125 27.984375 -10.890625 C 28.066406 -9.734375 27.835938 -8.8125 27.296875 -8.125 C 26.753906 -7.445312 26.050781 -6.984375 25.1875 -6.734375 C 24.320312 -6.492188 23.425781 -6.492188 22.5 -6.734375 C 21.582031 -6.984375 20.78125 -7.457031 20.09375 -8.15625 C 19.414062 -8.851562 19.035156 -9.765625 18.953125 -10.890625 C 18.753906 -13.015625 18.171875 -15.050781 17.203125 -17 C 16.242188 -18.945312 14.984375 -20.625 13.421875 -22.03125 C 13.015625 -16.96875 12.472656 -11.929688 11.796875 -6.921875 C 11.671875 -6.117188 11.296875 -5.445312 10.671875 -4.90625 C 10.054688 -4.363281 9.335938 -3.988281 8.515625 -3.78125 C 7.691406 -3.582031 6.921875 -3.585938 6.203125 -3.796875 C 4.910156 -4.148438 4.023438 -4.859375 3.546875 -5.921875 C 3.066406 -6.992188 2.90625 -8.128906 3.0625 -9.328125 C 3.832031 -15.023438 4.40625 -20.742188 4.78125 -26.484375 C 5.164062 -32.222656 5.378906 -37.976562 5.421875 -43.75 C 5.421875 -44.914062 5.71875 -45.835938 6.3125 -46.515625 C 6.914062 -47.203125 7.671875 -47.664062 8.578125 -47.90625 C 9.484375 -48.144531 10.382812 -48.144531 11.28125 -47.90625 C 12.1875 -47.664062 12.9375 -47.203125 13.53125 -46.515625 C 14.132812 -45.835938 14.4375 -44.914062 14.4375 -43.75 C 14.40625 -41.789062 14.367188 -39.835938 14.328125 -37.890625 C 14.285156 -35.941406 14.203125 -33.984375 14.078125 -32.015625 C 15.285156 -32.703125 16.390625 -33.664062 17.390625 -34.90625 C 18.398438 -36.15625 19.304688 -37.460938 20.109375 -38.828125 C 20.910156 -40.191406 21.628906 -41.414062 22.265625 -42.5 C 22.867188 -43.5 23.601562 -44.148438 24.46875 -44.453125 C 25.332031 -44.753906 26.210938 -44.773438 27.109375 -44.515625 C 28.015625 -44.253906 28.796875 -43.800781 29.453125 -43.15625 C 30.117188 -42.507812 30.53125 -41.722656 30.6875 -40.796875 C 30.851562 -39.878906 30.65625 -38.921875 30.09375 -37.921875 Z M 30.09375 -37.921875 "/>
            </g>
        </g>
    </g>
    <g fill="#59b379" fill-opacity="1">
        <g transform="translate(282.887079, 199.265032)">
            <g>
                <path d="M 25.09375 -12.703125 C 26.257812 -12.660156 27.191406 -12.316406 27.890625 -11.671875 C 28.597656 -11.035156 29.0625 -10.265625 29.28125 -9.359375 C 29.5 -8.453125 29.5 -7.554688 29.28125 -6.671875 C 29.0625 -5.796875 28.597656 -5.066406 27.890625 -4.484375 C 27.191406 -3.898438 26.257812 -3.628906 25.09375 -3.671875 C 22.363281 -3.796875 19.632812 -3.785156 16.90625 -3.640625 C 14.175781 -3.503906 11.453125 -3.210938 8.734375 -2.765625 C 7.890625 -2.648438 7.003906 -2.738281 6.078125 -3.03125 C 5.148438 -3.332031 4.375 -3.820312 3.75 -4.5 C 3.132812 -5.1875 2.90625 -6.070312 3.0625 -7.15625 C 3.75 -12.695312 4.503906 -18.234375 5.328125 -23.765625 C 6.148438 -29.304688 7.039062 -34.847656 8 -40.390625 C 8.125 -41.066406 8.367188 -41.644531 8.734375 -42.125 C 9.046875 -42.6875 9.503906 -43.160156 10.109375 -43.546875 C 10.710938 -43.929688 11.457031 -44.140625 12.34375 -44.171875 C 16.675781 -44.296875 21.007812 -44.21875 25.34375 -43.9375 C 26.5 -43.851562 27.425781 -43.476562 28.125 -42.8125 C 28.832031 -42.15625 29.296875 -41.375 29.515625 -40.46875 C 29.742188 -39.570312 29.742188 -38.679688 29.515625 -37.796875 C 29.296875 -36.910156 28.832031 -36.1875 28.125 -35.625 C 27.425781 -35.0625 26.5 -34.820312 25.34375 -34.90625 C 22.375 -35.101562 19.34375 -35.203125 16.25 -35.203125 C 16.050781 -34.046875 15.847656 -32.882812 15.640625 -31.71875 C 15.441406 -30.550781 15.265625 -29.390625 15.109375 -28.234375 C 16.753906 -28.191406 18.335938 -28.085938 19.859375 -27.921875 C 21.066406 -27.804688 22.117188 -27.359375 23.015625 -26.578125 C 23.921875 -25.796875 24.375 -24.738281 24.375 -23.40625 C 24.375 -22.644531 24.160156 -21.90625 23.734375 -21.1875 C 23.316406 -20.46875 22.765625 -19.882812 22.078125 -19.4375 C 21.398438 -19 20.660156 -18.820312 19.859375 -18.90625 C 17.816406 -19.101562 15.769531 -19.203125 13.71875 -19.203125 C 13.5625 -18.078125 13.398438 -16.929688 13.234375 -15.765625 C 13.078125 -14.609375 12.921875 -13.46875 12.765625 -12.34375 C 14.804688 -12.539062 16.847656 -12.664062 18.890625 -12.71875 C 20.941406 -12.78125 23.007812 -12.773438 25.09375 -12.703125 Z M 25.09375 -12.703125 "/>
            </g>
        </g>
    </g>
    <g fill="#59b379" fill-opacity="1">
        <g transform="translate(315.566655, 199.265032)">
            <g>
                <path d="M 34.25 -5.65625 C 34.925781 -4.695312 35.203125 -3.785156 35.078125 -2.921875 C 34.960938 -2.054688 34.582031 -1.300781 33.9375 -0.65625 C 33.300781 -0.0195312 32.53125 0.425781 31.625 0.6875 C 30.726562 0.945312 29.804688 0.945312 28.859375 0.6875 C 27.921875 0.425781 27.109375 -0.160156 26.421875 -1.078125 C 24.617188 -3.566406 22.601562 -5.851562 20.375 -7.9375 C 18.144531 -10.03125 15.75 -11.921875 13.1875 -13.609375 C 12.976562 -11.234375 12.785156 -8.851562 12.609375 -6.46875 C 12.429688 -4.082031 12.238281 -1.707031 12.03125 0.65625 C 11.957031 1.820312 11.585938 2.742188 10.921875 3.421875 C 10.265625 4.109375 9.472656 4.570312 8.546875 4.8125 C 7.617188 5.050781 6.722656 5.0625 5.859375 4.84375 C 5.003906 4.625 4.296875 4.160156 3.734375 3.453125 C 3.171875 2.753906 2.929688 1.820312 3.015625 0.65625 C 3.367188 -3.707031 3.644531 -8.15625 3.84375 -12.6875 C 4.050781 -17.226562 4.597656 -21.664062 5.484375 -26 C 5.921875 -28.25 6.738281 -30.414062 7.9375 -32.5 C 9.144531 -34.582031 10.679688 -36.304688 12.546875 -37.671875 C 14.410156 -39.035156 16.585938 -39.78125 19.078125 -39.90625 C 20.804688 -39.988281 22.441406 -39.664062 23.984375 -38.9375 C 25.523438 -38.21875 26.835938 -37.210938 27.921875 -35.921875 C 29.003906 -34.640625 29.738281 -33.195312 30.125 -31.59375 C 30.507812 -29.988281 30.421875 -28.328125 29.859375 -26.609375 C 29.296875 -24.878906 28.378906 -23.25 27.109375 -21.71875 C 25.847656 -20.195312 24.394531 -18.875 22.75 -17.75 C 27.039062 -14.257812 30.875 -10.226562 34.25 -5.65625 Z M 18.109375 -25.703125 C 18.359375 -25.941406 18.757812 -26.3125 19.3125 -26.8125 C 19.875 -27.3125 20.375 -27.84375 20.8125 -28.40625 C 21.257812 -28.96875 21.441406 -29.410156 21.359375 -29.734375 C 21.203125 -30.578125 20.890625 -31.035156 20.421875 -31.109375 C 19.960938 -31.191406 19.441406 -31.0625 18.859375 -30.71875 C 18.285156 -30.382812 17.71875 -29.925781 17.15625 -29.34375 C 16.59375 -28.757812 16.109375 -28.207031 15.703125 -27.6875 C 15.304688 -27.164062 15.046875 -26.785156 14.921875 -26.546875 C 14.597656 -25.617188 14.316406 -24.613281 14.078125 -23.53125 C 14.878906 -23.65625 15.601562 -23.90625 16.25 -24.28125 C 16.894531 -24.664062 17.515625 -25.140625 18.109375 -25.703125 Z M 18.109375 -25.703125 "/>
            </g>
        </g>
    </g>
</svg>