<svg xmlns="http://www.w3.org/2000/svg" xmlns:xlink="http://www.w3.org/1999/xlink" width="500" zoomAndPan="magnify" viewBox="0 0 375 374.999991" height="500" preserveAspectRatio="xMidYMid meet" version="1.0"><defs><g/></defs><g fill="#000000" fill-opacity="0.4"><g transform="translate(92.164826, 290.758234)"><g><path d="M 147.296875 -178.5 C 147.492188 -167.101562 147.59375 -154.703125 147.59375 -141.296875 C 147.59375 -127.898438 146.789062 -114.5 145.1875 -101.09375 C 143.59375 -87.695312 140.59375 -75.046875 136.1875 -63.140625 C 131.789062 -51.242188 125.394531 -41 117 -32.40625 C 108.394531 -23.601562 99.09375 -18.050781 89.09375 -15.75 C 79.09375 -13.445312 69.242188 -13.894531 59.546875 -17.09375 C 49.847656 -20.300781 41.195312 -25.753906 33.59375 -33.453125 C 26 -41.148438 20.300781 -50.597656 16.5 -61.796875 C 14.5 -67.597656 14.347656 -72.695312 16.046875 -77.09375 C 17.742188 -81.5 20.539062 -84.898438 24.4375 -87.296875 C 28.34375 -89.703125 32.695312 -90.953125 37.5 -91.046875 C 42.300781 -91.148438 46.75 -89.898438 50.84375 -87.296875 C 54.945312 -84.703125 57.898438 -80.503906 59.703125 -74.703125 C 61.503906 -69.503906 64.753906 -65.851562 69.453125 -63.75 C 74.148438 -61.644531 78.800781 -62.09375 83.40625 -65.09375 C 87.195312 -67.5 89.992188 -71.148438 91.796875 -76.046875 C 93.597656 -80.953125 95 -85.601562 96 -90 C 99.601562 -104.394531 101.65625 -119.039062 102.15625 -133.9375 C 102.65625 -148.84375 102.703125 -163.695312 102.296875 -178.5 C 102.296875 -184.695312 103.796875 -189.644531 106.796875 -193.34375 C 109.796875 -197.050781 113.492188 -199.550781 117.890625 -200.84375 C 122.296875 -202.144531 126.75 -202.144531 131.25 -200.84375 C 135.75 -199.550781 139.546875 -197.050781 142.640625 -193.34375 C 145.742188 -189.644531 147.296875 -184.695312 147.296875 -178.5 Z M 147.296875 -178.5 "/></g></g></g><g fill="#59b379" fill-opacity="1"><g transform="translate(78.906572, 277.499982)"><g><path d="M 147.296875 -178.5 C 147.492188 -167.101562 147.59375 -154.703125 147.59375 -141.296875 C 147.59375 -127.898438 146.789062 -114.5 145.1875 -101.09375 C 143.59375 -87.695312 140.59375 -75.046875 136.1875 -63.140625 C 131.789062 -51.242188 125.394531 -41 117 -32.40625 C 108.394531 -23.601562 99.09375 -18.050781 89.09375 -15.75 C 79.09375 -13.445312 69.242188 -13.894531 59.546875 -17.09375 C 49.847656 -20.300781 41.195312 -25.753906 33.59375 -33.453125 C 26 -41.148438 20.300781 -50.597656 16.5 -61.796875 C 14.5 -67.597656 14.347656 -72.695312 16.046875 -77.09375 C 17.742188 -81.5 20.539062 -84.898438 24.4375 -87.296875 C 28.34375 -89.703125 32.695312 -90.953125 37.5 -91.046875 C 42.300781 -91.148438 46.75 -89.898438 50.84375 -87.296875 C 54.945312 -84.703125 57.898438 -80.503906 59.703125 -74.703125 C 61.503906 -69.503906 64.753906 -65.851562 69.453125 -63.75 C 74.148438 -61.644531 78.800781 -62.09375 83.40625 -65.09375 C 87.195312 -67.5 89.992188 -71.148438 91.796875 -76.046875 C 93.597656 -80.953125 95 -85.601562 96 -90 C 99.601562 -104.394531 101.65625 -119.039062 102.15625 -133.9375 C 102.65625 -148.84375 102.703125 -163.695312 102.296875 -178.5 C 102.296875 -184.695312 103.796875 -189.644531 106.796875 -193.34375 C 109.796875 -197.050781 113.492188 -199.550781 117.890625 -200.84375 C 122.296875 -202.144531 126.75 -202.144531 131.25 -200.84375 C 135.75 -199.550781 139.546875 -197.050781 142.640625 -193.34375 C 145.742188 -189.644531 147.296875 -184.695312 147.296875 -178.5 Z M 147.296875 -178.5 "/></g></g></g></svg>