<svg xmlns="http://www.w3.org/2000/svg" xmlns:xlink="http://www.w3.org/1999/xlink" width="500" zoomAndPan="magnify" viewBox="0 0 375 374.999991" height="500" preserveAspectRatio="xMidYMid meet" version="1.0"><defs><g/></defs><g fill="#000000" fill-opacity="0.4"><g transform="translate(144.717476, 204.080836)"><g><path d="M 48.6875 -59 C 48.757812 -55.238281 48.796875 -51.140625 48.796875 -46.703125 C 48.796875 -42.273438 48.53125 -37.847656 48 -33.421875 C 47.46875 -28.992188 46.472656 -24.8125 45.015625 -20.875 C 43.566406 -16.9375 41.453125 -13.546875 38.671875 -10.703125 C 35.828125 -7.796875 32.753906 -5.960938 29.453125 -5.203125 C 26.148438 -4.441406 22.894531 -4.585938 19.6875 -5.640625 C 16.476562 -6.703125 13.617188 -8.503906 11.109375 -11.046875 C 8.597656 -13.597656 6.710938 -16.722656 5.453125 -20.421875 C 4.796875 -22.347656 4.75 -24.035156 5.3125 -25.484375 C 5.875 -26.941406 6.796875 -28.066406 8.078125 -28.859375 C 9.367188 -29.648438 10.804688 -30.0625 12.390625 -30.09375 C 13.984375 -30.125 15.457031 -29.707031 16.8125 -28.84375 C 18.164062 -27.988281 19.140625 -26.601562 19.734375 -24.6875 C 20.328125 -22.96875 21.398438 -21.757812 22.953125 -21.0625 C 24.503906 -20.375 26.039062 -20.523438 27.5625 -21.515625 C 28.820312 -22.304688 29.75 -23.507812 30.34375 -25.125 C 30.9375 -26.75 31.398438 -28.289062 31.734375 -29.75 C 32.921875 -34.507812 33.597656 -39.351562 33.765625 -44.28125 C 33.929688 -49.207031 33.945312 -54.113281 33.8125 -59 C 33.8125 -61.050781 34.304688 -62.6875 35.296875 -63.90625 C 36.296875 -65.132812 37.519531 -65.960938 38.96875 -66.390625 C 40.425781 -66.828125 41.898438 -66.828125 43.390625 -66.390625 C 44.878906 -65.960938 46.132812 -65.132812 47.15625 -63.90625 C 48.175781 -62.6875 48.6875 -61.050781 48.6875 -59 Z M 48.6875 -59 "/></g></g></g><g fill="#59b379" fill-opacity="1"><g transform="translate(140.334385, 199.697745)"><g><path d="M 48.6875 -59 C 48.757812 -55.238281 48.796875 -51.140625 48.796875 -46.703125 C 48.796875 -42.273438 48.53125 -37.847656 48 -33.421875 C 47.46875 -28.992188 46.472656 -24.8125 45.015625 -20.875 C 43.566406 -16.9375 41.453125 -13.546875 38.671875 -10.703125 C 35.828125 -7.796875 32.753906 -5.960938 29.453125 -5.203125 C 26.148438 -4.441406 22.894531 -4.585938 19.6875 -5.640625 C 16.476562 -6.703125 13.617188 -8.503906 11.109375 -11.046875 C 8.597656 -13.597656 6.710938 -16.722656 5.453125 -20.421875 C 4.796875 -22.347656 4.75 -24.035156 5.3125 -25.484375 C 5.875 -26.941406 6.796875 -28.066406 8.078125 -28.859375 C 9.367188 -29.648438 10.804688 -30.0625 12.390625 -30.09375 C 13.984375 -30.125 15.457031 -29.707031 16.8125 -28.84375 C 18.164062 -27.988281 19.140625 -26.601562 19.734375 -24.6875 C 20.328125 -22.96875 21.398438 -21.757812 22.953125 -21.0625 C 24.503906 -20.375 26.039062 -20.523438 27.5625 -21.515625 C 28.820312 -22.304688 29.75 -23.507812 30.34375 -25.125 C 30.9375 -26.75 31.398438 -28.289062 31.734375 -29.75 C 32.921875 -34.507812 33.597656 -39.351562 33.765625 -44.28125 C 33.929688 -49.207031 33.945312 -54.113281 33.8125 -59 C 33.8125 -61.050781 34.304688 -62.6875 35.296875 -63.90625 C 36.296875 -65.132812 37.519531 -65.960938 38.96875 -66.390625 C 40.425781 -66.828125 41.898438 -66.828125 43.390625 -66.390625 C 44.878906 -65.960938 46.132812 -65.132812 47.15625 -63.90625 C 48.175781 -62.6875 48.6875 -61.050781 48.6875 -59 Z M 48.6875 -59 "/></g></g></g></svg>